<?xml version="1.0" encoding="UTF-8"?>
<svg xmlns="http://www.w3.org/2000/svg" version="1.1" xmlns:xlink="http://www.w3.org/1999/xlink" viewBox="0 0 404.2 340.2">
  <defs>
    <style>
      .cls-1 {
        opacity: .7;
      }

      .cls-1, .cls-2, .cls-3, .cls-4, .cls-5, .cls-6, .cls-7, .cls-8, .cls-9 {
        stroke-width: 0px;
      }

      .cls-1, .cls-2, .cls-10, .cls-5, .cls-7, .cls-8, .cls-11 {
        isolation: isolate;
      }

      .cls-1, .cls-12, .cls-5, .cls-8, .cls-11, .cls-9, .cls-13 {
        fill: #fff;
      }

      .cls-14, .cls-15, .cls-12, .cls-16, .cls-17, .cls-11, .cls-18, .cls-19, .cls-20, .cls-13 {
        stroke: #263238;
      }

      .cls-14, .cls-15, .cls-4, .cls-21, .cls-22, .cls-18, .cls-19 {
        fill: none;
      }

      .cls-14, .cls-12, .cls-21, .cls-11 {
        stroke-miterlimit: 10;
      }

      .cls-2 {
        mix-blend-mode: multiply;
      }

      .cls-2, .cls-3, .cls-16, .cls-20 {
        fill: #ffbf23;
      }

      .cls-2, .cls-23, .cls-5, .cls-11 {
        opacity: .5;
      }

      .cls-24 {
        clip-path: url(#clippath-2);
      }

      .cls-15, .cls-16, .cls-17, .cls-22, .cls-18, .cls-20, .cls-13 {
        stroke-linecap: round;
        stroke-linejoin: round;
      }

      .cls-25 {
        clip-path: url(#clippath-1);
      }

      .cls-26 {
        clip-path: url(#clippath-4);
      }

      .cls-21, .cls-22 {
        stroke: #fff;
      }

      .cls-6, .cls-17 {
        fill: #263238;
      }

      .cls-7 {
        fill: #000;
        opacity: .2;
      }

      .cls-8 {
        opacity: .6;
      }

      .cls-27 {
        clip-path: url(#clippath);
      }

      .cls-22, .cls-18 {
        stroke-width: .5px;
      }

      .cls-28 {
        clip-path: url(#clippath-3);
      }

      .cls-19 {
        stroke-miterlimit: 10;
        stroke-width: 1px;
      }

      .cls-29 {
        clip-path: url(#clippath-5);
      }

      .cls-20 {
        stroke-width: 1px;
      }
    </style>
    <clipPath id="clippath">
      <polygon class="cls-4" points="216.1 269.5 205.1 285.9 227.8 293 237.2 276.5 216.1 269.5"/>
    </clipPath>
    <clipPath id="clippath-1">
      <path class="cls-4" d="M321,268.4c-2.8-1.8-7-1.6-8.7,1.7-2.5,4.8-.7,13.8-1.6,15s-3.6,1.6-4.8-1.1-1.2-6.2-2.9-6.4-3.8.5-4.1,4.6.4,8.8,3.2,10.9,6.1,1.4,7,2.3,0,2.3,0,3.2c0,4,5.2,6,8.5,5,4.8-1.4,4.3-6.3,5-8.2s4.6-2.1,6.1-5.2,3.6-9.1.5-11.4-5.4-1.2-5.7,1.2c-.4,2-1.1,3.9-2,5.7,2.1-4.2,4.2-14.3-.6-17.4Z"/>
    </clipPath>
    <clipPath id="clippath-2">
      <path class="cls-4" d="M245.6,186.9c1.9,4.8,4.1,15.2,2.6,21.2-.8,3.1-3.4,9.6-5.6,15.1l56.9,29.7c0-11.8,0-30.5,1.6-34,2.2-5.2,20.1-54.3,19-65.5s-22.7-27.2-22.7-27.2l3.3-27.2-19.7,11.9s-2.2,10.8-4.5,13.4c-2.2,2.6-20.5,6.3-25.7,13s-3.4,27.2-3.4,28.3-3.7,16.4-1.9,21.2Z"/>
    </clipPath>
    <clipPath id="clippath-3">
      <path class="cls-4" d="M252.3,53.7s2.6,13.4,2.2,22.7-4.1,13-3,17.1c1.1,4.1,14.5,19.4,22.7,20.8s27.5-11.2,33.1-16.7c5.6-5.6,6.3-13.8,5.6-17.1-.7-3.4-3.7-30.1-14.9-40.9-11.2-10.8-40.5-9.7-45.7,14.1Z"/>
    </clipPath>
    <clipPath id="clippath-4">
      <path class="cls-4" d="M302.5,165.3l-25.7,58.4s-69.9,13-76.3,13-19,4.5-21.6,6-27.9,13.1-23,13.9c3,.5,10.8-3.8,10.8-3.8,0,0-12.3,6-11.2,7.8s16-5.6,16-5.6c0,0-13.6,8-10.8,8.5,2.5.5,5.6-1,8.2-2.9,2.3-1.4,4.7-2.5,7.3-3.2,0,0-6,4-6.7,5.8s1.5.7,3.7,0c4.2-1.8,8.2-3.9,12.1-6.3,1.5-1.1,5.9-3.4,8.9-6l5.9-5.2s39.8,1.1,58,.4,27.2-2.6,33.9-9.3c6.7-6.7,25.7-49.1,30.1-60.6s1.5-18.2-3-26l-16.7,15.2Z"/>
    </clipPath>
    <clipPath id="clippath-5">
      <path class="cls-4" d="M246.8,190.7c-7.5,2.2-37.4,10.9-40.1,11.6-1.7.4-3.5.7-5.2.9,0,0-10.4-4.5-13.2-6.5-2.8-2-6.1-.8-7.8,0s-3,5.9.2,5.9,3.7-.2,7.2,2.8,3.5,4.5,6.1,5.6,6.9.4,9.1,0c2-.3,36.6-2.6,45.1-3.1,1.1-4.7,0-12-1.4-17.2Z"/>
    </clipPath>
  </defs>
  <g class="cls-10">
    <g id="Capa_1" data-name="Capa 1">
      <g id="freepik--background-simple--inject-1--inject-19">
        <path class="cls-3" d="M353.5,281.3s44.1-38.7,44.1-89.8-28.6-51.1-53.4-116.9S249,.3,206.5,21.2c-36.1,17.7-46.4,71.2-77.4,81.3s-34-14.7-83.6-1.6-24,85.1-24,85.1l96-29.4,236,124.6Z"/>
        <path class="cls-1" d="M353.5,281.3s44.1-38.7,44.1-89.8-28.6-51.1-53.4-116.9S249,.3,206.5,21.2c-36.1,17.7-46.4,71.2-77.4,81.3s-34-14.7-83.6-1.6-24,85.1-24,85.1l96-29.4,236,124.6Z"/>
      </g>
      <g id="freepik--Shadows--inject-1--inject-19">
        <polyline class="cls-3" points="182.4 281.1 115.8 307.8 38.4 230.4 89.1 223.1 182.4 281.1"/>
        <polyline class="cls-5" points="182.4 281.1 115.8 307.8 38.4 230.4 89.1 223.1 182.4 281.1"/>
        <ellipse class="cls-3" cx="264.4" cy="305.8" rx="16" ry="10.7"/>
        <ellipse class="cls-5" cx="264.4" cy="305.8" rx="16" ry="10.7"/>
        <polyline class="cls-3" points="201.8 245.2 299.5 252.9 277.8 241.8 201.8 245.2"/>
        <polyline class="cls-5" points="201.8 245.2 299.5 252.9 277.8 241.8 201.8 245.2"/>
        <polyline class="cls-3" points="223.8 215.1 194.8 212.7 198.4 208.4 215.1 208.4 223.8 215.1"/>
        <polyline class="cls-5" points="223.8 215.1 194.8 212.7 198.4 208.4 215.1 208.4 223.8 215.1"/>
        <ellipse class="cls-3" cx="317.8" cy="318.5" rx="20.3" ry="12.3"/>
        <ellipse class="cls-5" cx="317.8" cy="318.5" rx="20.3" ry="12.3"/>
      </g>
      <g id="freepik--Post-it--inject-1--inject-19">
        <polygon class="cls-13" points="197.3 289.8 186.3 307.8 210.6 312.5 220 294.5 197.3 289.8"/>
        <polygon class="cls-3" points="216.1 269.5 205.1 285.9 227.8 293 237.2 276.5 216.1 269.5"/>
        <g class="cls-27">
          <polygon class="cls-11" points="216.1 269.5 205.1 285.9 227.8 293 237.2 276.5 216.1 269.5"/>
        </g>
        <polygon class="cls-15" points="216.1 269.5 205.1 285.9 227.8 293 237.2 276.5 216.1 269.5"/>
        <polygon class="cls-16" points="240.3 300.8 220.8 306.3 228.6 318.8 251.3 313.3 240.3 300.8"/>
      </g>
      <g id="freepik--Plant--inject-1--inject-19">
        <path class="cls-16" d="M296.1,297.6l2,15.2c0,6.3,7.6,11.4,17.1,11.4s17.1-5.1,17.1-11.4l2.1-15.2h-38.2Z"/>
        <ellipse class="cls-16" cx="315.2" cy="297.6" rx="19.1" ry="12.8"/>
        <ellipse class="cls-16" cx="315.2" cy="297.6" rx="16.3" ry="10.9"/>
        <ellipse class="cls-17" cx="315.2" cy="299.5" rx="16" ry="8.9"/>
        <path class="cls-3" d="M321,268.4c-2.8-1.8-7-1.6-8.7,1.7-2.5,4.8-.7,13.8-1.6,15s-3.6,1.6-4.8-1.1-1.2-6.2-2.9-6.4-3.8.5-4.1,4.6.4,8.8,3.2,10.9,6.1,1.4,7,2.3,0,2.3,0,3.2c0,4,5.2,6,8.5,5,4.8-1.4,4.3-6.3,5-8.2s4.6-2.1,6.1-5.2,3.6-9.1.5-11.4-5.4-1.2-5.7,1.2c-.4,2-1.1,3.9-2,5.7,2.1-4.2,4.2-14.3-.6-17.4Z"/>
        <g class="cls-25">
          <path class="cls-7" d="M321,268.4c-2.8-1.8-7-1.6-8.7,1.7-2.5,4.8-.7,13.8-1.6,15s-3.6,1.6-4.8-1.1-1.2-6.2-2.9-6.4-3.8.5-4.1,4.6.4,8.8,3.2,10.9,6.1,1.4,7,2.3,0,2.3,0,3.2c0,4,5.2,6,8.5,5,4.8-1.4,4.3-6.3,5-8.2s4.6-2.1,6.1-5.2,3.6-9.1.5-11.4-5.4-1.2-5.7,1.2c-.4,2-1.1,3.9-2,5.7,2.1-4.2,4.2-14.3-.6-17.4Z"/>
        </g>
        <path class="cls-15" d="M321,268.4c-2.8-1.8-7-1.6-8.7,1.7-2.5,4.8-.7,13.8-1.6,15s-3.6,1.6-4.8-1.1-1.2-6.2-2.9-6.4-3.8.5-4.1,4.6.4,8.8,3.2,10.9,6.1,1.4,7,2.3,0,2.3,0,3.2c0,4,5.2,6,8.5,5,4.8-1.4,4.3-6.3,5-8.2s4.6-2.1,6.1-5.2,3.6-9.1.5-11.4-5.4-1.2-5.7,1.2c-.4,2-1.1,3.9-2,5.7,2.1-4.2,4.2-14.3-.6-17.4Z"/>
        <path class="cls-18" d="M316.6,269.7c-1.6,1.1-2.7,2.9-2.9,4.8-.2,3.2,0,13.4-1.2,14.8s-5.4,1.1-8-1.4-1.5-7.9-1.5-7.9"/>
        <path class="cls-18" d="M303.8,291.1c.9.7,2,1.2,3.1,1.5,3.2.7,5.5-.9,6.1.7s-.5,7.3-.5,7.3"/>
        <path class="cls-18" d="M301.9,289.2c.3.5.7.9,1.1,1.3"/>
        <path class="cls-18" d="M316.5,297.7c.2-2.7.2-5.3,0-8-.3-4,1.5-11.4,2-14.8"/>
        <path class="cls-18" d="M316.2,301.9s.1-1.1.2-2.7"/>
        <path class="cls-18" d="M328.6,284c0-.9.1-1.4.1-1.4"/>
        <path class="cls-18" d="M320.2,298.7s.7-5.9,2.1-7,5.5-1.8,5.9-4.5c0-.4.1-.8.2-1.2"/>
        <path class="cls-18" d="M326.2,280.3c-.8.5-1.2,1.4-1.1,2.3.1,2.2-1,4.3-2.9,5.4"/>
        <path class="cls-18" d="M318.8,272.9c0-1,0-2,0-3"/>
      </g>
      <g id="freepik--Cup--inject-1--inject-19">
        <path class="cls-13" d="M250.7,269l2.6,27.9v3c0,4,5.6,7.2,12.6,7.2s12.6-3.2,12.6-7.2v-3l2.4-28.2-30.2.3Z"/>
        <path class="cls-16" d="M278.6,295.4l1.4-16.2c-1.9,2.9-7.5,5-14,5s-12.8-2.3-14.3-5.5l1.6,16.6c2.6,2.1,7.3,3.6,12.7,3.6s10.1-1.4,12.7-3.5Z"/>
        <polygon class="cls-13" points="251.2 274.2 251.2 274 251.1 272.9 251.2 274.2"/>
        <path class="cls-16" d="M281.4,264.8c-2.7-3.4-8.6-5.7-15.5-5.7s-12.8,2.4-15.5,5.7h-1.5v4c0,5.4,7.6,9.7,17,9.7s17-4.3,17-9.7v-4h-1.6Z"/>
        <path class="cls-7" d="M281.4,264.8c-2.7-3.4-8.6-5.7-15.5-5.7s-12.8,2.4-15.5,5.7h-1.5v4c0,5.4,7.6,9.7,17,9.7s17-4.3,17-9.7v-4h-1.6Z"/>
        <ellipse class="cls-13" cx="265.9" cy="264.8" rx="17" ry="9.7"/>
        <path class="cls-16" d="M279.4,259.4c-2.3-2.9-7.5-5-13.5-5s-11.2,2-13.5,5h-1.3v3.5c0,4.7,6.6,8.5,14.8,8.5s14.8-3.8,14.8-8.5v-3.5h-1.4Z"/>
        <ellipse class="cls-13" cx="265.9" cy="259.4" rx="14.8" ry="8.5"/>
      </g>
      <g id="freepik--Cat--inject-1--inject-19">
        <path class="cls-13" d="M116.3,177.2s1.2-.8,8.5,2.3,10.2,2.4,17.4,1.2c8.6-1.5,15.7-3,16.6.5,1.5,6-4.5,5.9-15.4,7.1s-17.1-2.1-20.6-3.7c-1.6-.7-3.2-1.4-4.6-2.3l-1.9-5Z"/>
        <path class="cls-13" d="M99.7,180.3s9.7,11.2,13.9,8.1,3.9-13.1,0-16.2-14.7,2.7-13.9,8.1Z"/>
        <path class="cls-13" d="M129.1,149.3s.4,10.4-2.3,17.4-7.7,11.6-8.5,15.5-.4,9.3-4.3,10.8-3.9-1.2-3.5-4.3,1.2-14.7,1.2-14.7l-12.8,7.7s3.5,9.7-3.9,10.8-16.3-10.1-17.4-18.5,3.5-27.5,11.6-32.5,18.6-4.2,24-4.2,13.5,3.8,15.9,12Z"/>
        <path class="cls-6" d="M98.3,138.6s-2,1-5.5,6.5,3.5,10.2,7.2,7.7.5-7.7,3.2-10.2c1.6-1.3,2.6-3.2,3-5.2l-8,1.2Z"/>
        <path class="cls-6" d="M87,146.3c-1.8,1.3-3,3.3-3.2,5.5-.2,3.5,6-3,6.7-6s-3.5.5-3.5.5Z"/>
        <path class="cls-16" d="M109.4,138.5c-1.8,3.3-1.7,7.3.4,10.4,3.5,5.4,11.2,7.7,14.3,3.9s4.3-5.8,3.1-7.7-12.4-9.7-17.8-6.6Z"/>
        <path class="cls-13" d="M138,119.5c-3,.3-5.9-.7-8.1-2.7-3.9-3.5-7.4-11.2-8.9-10.8s-7,11.6-7,11.6c0,0-9.3.8-10.1,3.5s3.5,15.5,7,20.9c3.3,4.9,8.8,7.9,14.7,8.2,4.6,0,18.6,1.2,20.5-3.5s.4-18.6.4-18.6c0,0,6.2-6.2,3.5-7.4s-12-1.2-12-1.2Z"/>
        <path class="cls-6" d="M136.1,138.9c-.5-.6-.9-1.2-1.4-1.9-.7-1.1-2.5-2.7-5.8-1.7-4.7,1.5-8,6-2.7,9.7,4.9,3.5,14.9.3,9.9-6.2Z"/>
        <path class="cls-13" d="M114,117.6s5.4,3.1,8.5,1.9,1.2-14.3-1.5-13.6-7.4,6.6-7,11.6Z"/>
        <path class="cls-13" d="M150,120.7s-5-.4-8.1,3.1-1.2,7,3.1,7.7,6.6-10.8,5-10.8Z"/>
        <path class="cls-16" d="M119.8,142.4s-5-3.9-3.9-.8,3.1,3.5,5,2.7-1.1-1.9-1.1-1.9Z"/>
        <path class="cls-6" d="M117.1,132.7c-.3,1-1.1,1.7-1.8,1.5s-1.1-1.2-.8-2.2,1.1-1.7,1.8-1.5,1.1,1.2.8,2.2Z"/>
        <path class="cls-9" d="M129,141.8c-.9.5-2,.5-2.4-.2s0-1.6,1-2.1c.7-.6,1.7-.5,2.4.2.4.7,0,1.6-1,2.2Z"/>
        <path class="cls-13" d="M94.3,166.3s-1.2,8.5.4,12,3.1,16.6,6.2,17,1.9-7,1.9-8.1.4-13.5.4-13.5c0,0,2.7-5.8,4.2-8.9"/>
        <path class="cls-15" d="M81.5,166s10.4-3.1,11.6,8.5"/>
        <path class="cls-15" d="M111.7,174.1s8.9-4.6,9.3-14.7"/>
      </g>
      <g id="freepik--Character--inject-1--inject-19">
        <line class="cls-15" x1="4.1" y1="189.9" x2="10.7" y2="188.5"/>
        <path class="cls-16" d="M59.1,228.8l53.1-15.1c1.7-.2,3.4.2,4.8,1.2l86.5,55.2c1,.6,1.3,2,.6,3-.3.5-.9.9-1.5,1l-72.7,22.6-70.8-67.9Z"/>
        <polygon class="cls-6" points="90.2 232 97.7 237.2 106.4 234.7 98.9 229.6 90.2 232"/>
        <polygon class="cls-6" points="94.9 246.5 87.4 241.3 78.6 243.8 86.2 249 94.9 246.5"/>
        <polygon class="cls-6" points="109.1 235.2 116.6 240.4 125.3 237.9 117.8 232.7 109.1 235.2"/>
        <polygon class="cls-6" points="117.9 241.2 125.4 246.4 134.1 244 126.6 238.8 117.9 241.2"/>
        <polygon class="cls-6" points="99 238.1 106.5 243.2 115.2 240.8 107.7 235.6 99 238.1"/>
        <polygon class="cls-6" points="80 234.9 87.6 240.1 96.3 237.6 88.7 232.4 80 234.9"/>
        <polygon class="cls-6" points="140.1 267.8 132.6 262.6 123.9 265.1 131.4 270.3 140.1 267.8"/>
        <polygon class="cls-6" points="129.9 270.7 122.4 265.5 113.7 268 121.2 273.1 129.9 270.7"/>
        <polygon class="cls-6" points="103.6 252.6 96.1 247.4 87.4 249.8 94.9 255 103.6 252.6"/>
        <polygon class="cls-6" points="148.8 273.9 141.3 268.7 132.6 271.1 140.1 276.3 148.8 273.9"/>
        <polygon class="cls-6" points="112.4 258.6 104.9 253.4 96.2 255.9 103.7 261.1 112.4 258.6"/>
        <polygon class="cls-6" points="121.2 264.6 113.6 259.5 104.9 261.9 112.5 267.1 121.2 264.6"/>
        <polygon class="cls-6" points="126.6 247.3 134.2 252.5 142.9 250 135.3 244.8 126.6 247.3"/>
        <polygon class="cls-6" points="88.8 240.9 96.3 246.1 105 243.7 97.5 238.5 88.8 240.9"/>
        <polygon class="cls-6" points="159 271 151.5 265.8 142.8 268.3 150.3 273.4 159 271"/>
        <polygon class="cls-6" points="132.7 252.9 125.2 247.7 116.5 250.1 124 255.3 132.7 252.9"/>
        <polygon class="cls-6" points="113.8 249.7 106.3 244.5 97.6 247 105.1 252.2 113.8 249.7"/>
        <polygon class="cls-6" points="77.3 234.4 72.9 231.4 67 233.1 70.5 236.4 77.3 234.4"/>
        <polygon class="cls-6" points="86.1 240.5 78.6 235.3 71.5 237.3 77.3 242.9 77.4 242.9 86.1 240.5"/>
        <polygon class="cls-6" points="107.7 244.1 115.2 249.3 123.9 246.8 116.4 241.6 107.7 244.1"/>
        <polygon class="cls-6" points="122.6 255.7 115 250.6 106.3 253 113.9 258.2 122.6 255.7"/>
        <polygon class="cls-6" points="160.4 262.1 152.9 256.9 144.2 259.4 151.7 264.5 160.4 262.1"/>
        <polygon class="cls-6" points="135.4 253.3 142.9 258.5 151.6 256 144.1 250.9 135.4 253.3"/>
        <polygon class="cls-6" points="150.2 264.9 142.7 259.8 134 262.2 141.5 267.4 150.2 264.9"/>
        <polygon class="cls-6" points="141.5 258.9 133.9 253.7 125.2 256.2 132.8 261.4 141.5 258.9"/>
        <polygon class="cls-6" points="131.3 261.8 123.8 256.6 115.1 259 122.6 264.2 131.3 261.8"/>
        <polygon class="cls-6" points="93.5 255.4 86 250.2 85.3 250.4 91.2 256.1 93.5 255.4"/>
        <polygon class="cls-6" points="160.2 271.8 151.5 274.3 160.6 280.5 169 277.9 160.2 271.8"/>
        <polygon class="cls-6" points="150.1 274.7 141.4 277.2 150.7 283.6 159.1 281 150.1 274.7"/>
        <polygon class="cls-6" points="111 267.5 103.5 262.3 99.1 263.6 105.1 269.2 111 267.5"/>
        <polygon class="cls-6" points="169.2 268.1 161.6 262.9 152.9 265.4 160.5 270.6 169.2 268.1"/>
        <polygon class="cls-6" points="119.8 273.6 112.3 268.4 106 270.1 112 275.8 119.8 273.6"/>
        <polygon class="cls-6" points="128.5 279.6 121 274.4 113 276.7 118.9 282.3 128.5 279.6"/>
        <polygon class="cls-6" points="138.7 276.7 131.2 271.5 122.5 274 130 279.2 138.7 276.7"/>
        <path class="cls-6" d="M187.8,268.6l-5-3.1-11,3.1,8.5,5.9,6.6-2c1.1,0,2-1.1,1.9-2.2,0-.7-.4-1.3-1-1.6Z"/>
        <polygon class="cls-6" points="129.8 280.4 119.9 283.2 127.7 290.6 139.4 287 129.8 280.4"/>
        <polygon class="cls-6" points="173.6 259.6 163.1 262.5 170.6 267.7 181.6 264.6 173.6 259.6"/>
        <polygon class="cls-6" points="170.4 269 161.7 271.4 170.5 277.5 178.9 274.9 170.4 269"/>
        <polygon class="cls-6" points="109.3 225.4 116.4 223.4 111.8 220.5 104.9 222.4 109.3 225.4"/>
        <polygon class="cls-6" points="149.3 284 139.9 277.6 131.2 280 140.8 286.6 149.3 284"/>
        <polygon class="cls-6" points="110.5 226.3 118 231.5 125.7 229.3 117.7 224.3 110.5 226.3"/>
        <polygon class="cls-6" points="128 238.4 135.5 243.5 144.3 241.1 136.3 236 128 238.4"/>
        <polygon class="cls-6" points="119.3 232.3 126.8 237.5 135 235.2 127 230.1 119.3 232.3"/>
        <polygon class="cls-6" points="136.8 244.4 144.3 249.6 153.6 247 145.6 241.9 136.8 244.4"/>
        <polygon class="cls-6" points="145.6 250.4 153.1 255.6 162.9 252.8 154.9 247.8 145.6 250.4"/>
        <polygon class="cls-6" points="164.2 253.7 154.3 256.5 161.8 261.7 172.2 258.7 164.2 253.7"/>
        <polygon class="cls-6" points="100.3 229.2 107.9 234.3 116.6 231.9 109 226.7 100.3 229.2"/>
        <polygon class="cls-6" points="82.8 248.1 84.3 249.5 84.7 249.4 82.8 248.1"/>
        <polygon class="cls-6" points="78.8 234 87.5 231.6 83.1 228.6 74.4 231 78.8 234"/>
        <polygon class="cls-6" points="88.9 231.2 97.6 228.7 93.3 225.7 84.6 228.1 88.9 231.2"/>
        <polygon class="cls-6" points="94.7 225.3 99.1 228.3 107.8 225.8 103.5 222.8 94.7 225.3"/>
        <polygon class="cls-6" points="102.2 261.5 94.7 256.3 92.2 257 98.1 262.6 102.2 261.5"/>
        <path class="cls-16" d="M129.9,296.7l-23-93.1c-.5-2.1-1.7-4-3.2-5.5l-62-57.8c-.7-.6-1.7-.6-2.4,0-.4.4-.5,1-.4,1.5l20.3,86.9,70.8,67.9Z"/>
        <path class="cls-18" d="M95.1,194.3l7.1,6.2s2.2.4,4.4,11.5"/>
        <line class="cls-18" x1="108" y1="217.8" x2="121" y2="274.4"/>
        <path class="cls-3" d="M69.7,191.8c3.1,7.5,2.8,14.6-.6,16.1s-8.7-3.5-11.8-11-2.8-14.6.6-16,8.7,3.5,11.8,11Z"/>
        <path class="cls-8" d="M69.7,191.8c3.1,7.5,2.8,14.6-.6,16.1s-8.7-3.5-11.8-11-2.8-14.6.6-16,8.7,3.5,11.8,11Z"/>
        <ellipse class="cls-19" cx="63.5" cy="194.3" rx="4.8" ry="10.4" transform="translate(-69.2 38.8) rotate(-22.4)"/>
        <path class="cls-6" d="M74.4,222.4c1.6,3.9.9,7.8-1.5,8.8s-5.6-1.4-7.2-5.2-.9-7.8,1.5-8.8,5.6,1.4,7.2,5.2Z"/>
        <path class="cls-3" d="M71.1,228.9c-1.5,0-3.2-1.4-4-3.5-.5-1.1-.6-2.3-.5-3.5,0-1,.7-1.9,1.6-2.3,1.7-.7,3.8.8,4.9,3.3h0c1.1,2.6.6,5.1-1.1,5.8-.3.1-.6.2-.9.2ZM69.1,220.4c-.2,0-.3,0-.5.1-.6.3-1,.9-1,1.6-.1,1,0,2.1.4,3,.8,2,2.5,3.3,3.6,2.8s1.4-2.5.6-4.5c-.7-1.8-2.1-2.9-3.1-2.9h0Z"/>
        <g class="cls-23">
          <path class="cls-9" d="M71.1,228.9c-1.5,0-3.2-1.4-4-3.5-.5-1.1-.6-2.3-.5-3.5,0-1,.7-1.9,1.6-2.3,1.7-.7,3.8.8,4.9,3.3h0c1.1,2.6.6,5.1-1.1,5.8-.3.1-.6.2-.9.2ZM69.1,220.4c-.2,0-.3,0-.5.1-.6.3-1,.9-1,1.6-.1,1,0,2.1.4,3,.8,2,2.5,3.3,3.6,2.8s1.4-2.5.6-4.5c-.7-1.8-2.1-2.9-3.1-2.9h0Z"/>
        </g>
        <path class="cls-6" d="M92.3,223.6l-5.7,9c-.3.4-.3,1,0,1.5l12.2,17.8c.4.6,1.3.8,1.9.4,0,0,0,0,.1,0l6.3-5.1c.5-.4.7-1.2.3-1.7l-12.8-21.6c-.4-.6-1.2-.9-1.8-.5-.2.1-.4.3-.5.5Z"/>
        <path class="cls-3" d="M82.4,235.5s15.8-2.6,26.6,19.6l2.7-3.3s-10.4-17.4-18.9-18.9-11.6-1.6-11.6-1.6l1.2,4.2Z"/>
        <path class="cls-5" d="M82.4,235.5s15.8-2.6,26.6,19.6l2.7-3.3s-10.4-17.4-18.9-18.9-11.6-1.6-11.6-1.6l1.2,4.2Z"/>
        <line class="cls-15" x1="14.4" y1="187.6" x2="40.1" y2="181.8"/>
        <path class="cls-12" d="M177.7,243.6c-3.1.5-6.2.8-9.3.9-4.8.2-6.9.2-6.1,1.3s6.5,2.2,8.6,2.6,6.9-4.8,6.9-4.8Z"/>
        <line class="cls-15" x1="359" y1="284.1" x2="350.4" y2="279.6"/>
        <path class="cls-6" d="M187.1,179s1.8-3.2,2.6.8l-2.6-.8Z"/>
        <line class="cls-15" x1="345.1" y1="276.8" x2="135.2" y2="167.1"/>
        <polygon class="cls-17" points="140.7 210.1 184.8 238.5 221.1 223.7 172.2 198.9 140.7 210.1"/>
        <line class="cls-22" x1="169.1" y1="204.1" x2="151.5" y2="210.3"/>
        <polyline class="cls-22" points="154.2 212.4 186 232.4 211.8 222.4"/>
        <path class="cls-17" d="M322.5,75.7s25.3,4,33.4,17.5,2.3,34.8-.4,42.2c-2.5,6.7,4.8,12.2,9.2,15.9,10,8.1,15.1,19.6,10,32-3.2,7.8-17.6,11.2-15.7,20.6s10.4,22.4-.4,32.1c-11.4,10.2-28.6,4.9-38.6-4.6-11.3-10.7-15.1-29.4-9.4-43.8,7-17.4,10.8-28.6,4.2-36s-15.1-12-15.1-22.4,9.3-13.5,13.2-24-1.5-21.3-1.5-21.3l11.1-8.2Z"/>
        <path class="cls-21" d="M346.1,93.7c4.9,3.7,9.3,9.9,7.8,20-3.1,20.5-18.3,21.8-8.5,34.8s18.7,7.1,16.9,23.2c-1.8,16-7.6,21.8-7.6,21.8"/>
        <path class="cls-21" d="M335.7,88.8c2,.5,3.9,1.1,5.7,2"/>
        <path class="cls-21" d="M330.8,94.6s12.9,3.6,16.9,14.2-12,19.6-12.9,26.3"/>
        <path class="cls-16" d="M330.2,269c-.2-6.1-.3-14.3.1-22.9.8-17.8,22.1-41.4,22.8-45.7s-1.2-5-1.2-5l-42.2-18.2c-19.6,12.9-24.4,50.3-25.5,67.8l46,24Z"/>
        <path class="cls-18" d="M347.4,196.5s3.5,2.2,0,5.8-13.3,18.6-17.3,27.4"/>
        <path class="cls-18" d="M328.4,234.1s-3.1,7.1-2.6,14.2.4,13.7.4,13.7"/>
        <path class="cls-9" d="M245.6,186.9c1.9,4.8,4.1,15.2,2.6,21.2-.8,3.1-3.4,9.6-5.6,15.1l56.9,29.7c0-11.8,0-30.5,1.6-34,2.2-5.2,20.1-54.3,19-65.5s-22.7-27.2-22.7-27.2l3.3-27.2-19.7,11.9s-2.2,10.8-4.5,13.4-20.5,6.3-25.7,13-3.4,27.2-3.4,28.3-3.7,16.4-1.9,21.2Z"/>
        <g class="cls-24">
          <path class="cls-2" d="M320,153.4c-1.1-11.2-22.7-27.2-22.7-27.2l3.3-27.2-19.7,11.9s-.6,3.1-1.6,6.4c1.3-.1,2.7-.3,4.3-.6,7.5-1.3,11.5-4,11.5-4l-4,16.8s20.4,12,25.7,26.6c.7,2,1.5,3.9,2.3,5.7.7-2.8,1-5.7.9-8.5Z"/>
        </g>
        <path class="cls-15" d="M245.6,186.9c1.9,4.8,4.1,15.2,2.6,21.2-.8,3.1-3.4,9.6-5.6,15.1l56.9,29.7c0-11.8,0-30.5,1.6-34,2.2-5.2,20.1-54.3,19-65.5s-22.7-27.2-22.7-27.2l3.3-27.2-19.7,11.9s-2.2,10.8-4.5,13.4-20.5,6.3-25.7,13-3.4,27.2-3.4,28.3-3.7,16.4-1.9,21.2Z"/>
        <path class="cls-17" d="M245.6,186.9c1.9,4.8,4.1,15.2,2.6,21.2-.8,3.1-3.4,9.6-5.6,15.1l56.9,29.7c0-11.8,0-30.5,1.6-34,2.2-5.2,20.1-54.3,19-65.5-.7-6.9-9.3-15.8-15.7-21.4-6.3,6.7-20,19.2-30,13.6-9-5-8.4-12.6-7.1-17.1-6.1,2.2-13.4,5.1-16.3,8.9-5.2,6.7-3.4,27.2-3.4,28.3s-3.8,16.4-1.9,21.2Z"/>
        <path class="cls-13" d="M278.8,173.7l-12.4-5.8s-3.5-5.8-5.4-5.8-3.1,8.1-3.1,8.1c0,0-6.6,6.2-4.2,12.4s10.8,15.5,21.3,12,7.4-14.3,7.4-14.3c0,0,4.3-7.4,4.3-8.9s-7.7,2.3-7.7,2.3Z"/>
        <path class="cls-9" d="M252.3,53.7s2.6,13.4,2.2,22.7-4.1,13-3,17.1,14.5,19.4,22.7,20.8,27.5-11.2,33.1-16.7,6.3-13.8,5.6-17.1-3.7-30.1-14.9-40.9-40.5-9.7-45.7,14.1Z"/>
        <g class="cls-28">
          <path class="cls-2" d="M298.1,39.6c-4.2-4-10.9-6.4-17.9-6.6l-.5,13.9s-2.2,13.7,5.8,24.8,15,14.2,15.9,18.6-3.1,8.8-13.3,16.4c-4,3-8.2,5.6-12.7,7.8,8.7.3,26.7-11.5,32-16.9,5.6-5.6,6.3-13.8,5.6-17.1s-3.7-30.1-14.9-40.9Z"/>
        </g>
        <path class="cls-15" d="M252.3,53.7s2.6,13.4,2.2,22.7-4.1,13-3,17.1,14.5,19.4,22.7,20.8,27.5-11.2,33.1-16.7,6.3-13.8,5.6-17.1-3.7-30.1-14.9-40.9-40.5-9.7-45.7,14.1Z"/>
        <path class="cls-15" d="M266.5,81.3s-1.1,7.1-3,9.3c1.5,1.3,3.3,2.1,5.2,2.2"/>
        <path class="cls-15" d="M267.2,99.1c4.9,2.2,10.6,1.9,15.2-.7"/>
        <path class="cls-6" d="M280.6,77.5c0,1.2-.6,2.2-1.3,2.2s-1.3-1-1.3-2.2.6-2.2,1.3-2.2,1.3,1,1.3,2.2Z"/>
        <path class="cls-6" d="M262.2,74.6c0,1.2-.6,2.2-1.3,2.2s-1.3-1-1.3-2.2.6-2.2,1.3-2.2,1.3,1,1.3,2.2Z"/>
        <path class="cls-15" d="M257.2,64.9c2.1-1.3,4.7-1.7,7.1-1.1"/>
        <path class="cls-15" d="M274.6,65.3s2.2-1.1,7.1,1.9"/>
        <path class="cls-17" d="M276.9,43.7s-10.4,8.6-15.6,13.8-7.4,8.9-15.2,5.6-13.4-14.9-3-28.7,30.5-17.9,50.2-12.3,27.9,18.2,29.4,32-1.5,29-8.5,33.1-22.7-12.6-28.3-23.1c-3.5-6.6-6.5-13.4-9-20.5Z"/>
        <path class="cls-21" d="M276.9,43.7s-28.1,4.1-29.4,10.4,7.1,4.5,7.1,4.5"/>
        <path class="cls-21" d="M243.8,47.8c-1.9,4.1-.4,6.7-.4,6.7"/>
        <path class="cls-21" d="M304.9,30.4s-27.2-4.4-27.2,7.6c0,0-16.5-5.8-27.2,2.2-1.6,1.2-3.1,2.5-4.4,4"/>
        <path class="cls-21" d="M279.1,40.7s6.9,22.4,21.4,28.1"/>
        <path class="cls-21" d="M293.5,46.7c5.6,4.6,13.5,9.1,23,8.7"/>
        <path class="cls-21" d="M284.9,37.6c1.3,1.8,2.7,3.5,4.3,5.1"/>
        <path class="cls-15" d="M249.7,66.8l43.5,7.4s0,6.6-1.9,10-4.1,3.4-8.9,3.4-11.6-3-11.9-4.1c-.8-2.6-.2-11.4-.2-11.4l-3.5-.6s.5,10.1-1.4,11.3-14.1-1.1-16.4-4.1-.8-12.4.7-12Z"/>
        <polygon class="cls-16" points="293.2 74.2 312.6 70.8 312.6 73.4 293.2 78.3 293.2 74.2"/>
        <ellipse class="cls-20" cx="316.2" cy="74.8" rx="17.2" ry="10.8" transform="translate(192.2 375.1) rotate(-80.9)"/>
        <path class="cls-16" d="M330,76.9c-1.3,7.9-5.7,13.8-9.8,13.1s-6.5-7.6-5.2-15.5,5.7-13.8,9.8-13.1,6.5,7.6,5.2,15.5Z"/>
        <path class="cls-13" d="M324.1,43.7c.7,10.4-.4,20.9-3.4,30.9,0,0-.4,6,5.2,3.4s4.8-25.3,4.1-34.6-7.8-6.7-5.9.4Z"/>
        <path class="cls-16" d="M303.3,26.2s8.5-2.2,13,5.6c4.5,7.8,3.7,14.9,10,15.6s6.7-6.3,3.4-15.2-10.4-15.6-20.1-16.4-14.4,7.1-14.4,7.1c0,0,5.2.7,8.2,3.3Z"/>
        <path class="cls-9" d="M302.5,165.3l-25.7,58.4s-69.9,13-76.3,13-19,4.5-21.6,6-27.9,13.1-23,13.9c3,.5,10.8-3.8,10.8-3.8,0,0-12.3,6-11.2,7.8s16-5.6,16-5.6c0,0-13.6,8-10.8,8.5,2.5.5,5.6-1,8.2-2.9,2.3-1.4,4.7-2.5,7.3-3.2,0,0-6,4-6.7,5.8s1.5.7,3.7,0c4.2-1.8,8.2-3.9,12.1-6.3,1.5-1.1,5.9-3.4,8.9-6l5.9-5.2s39.8,1.1,58,.4,27.2-2.6,33.9-9.3,25.7-49.1,30.1-60.6,1.5-18.2-3-26"/>
        <g class="cls-26">
          <path class="cls-2" d="M303.6,203.6c-12,22.6-22.1,29.6-32.8,35s-69.1,6.6-69.1,6.6l2.5.6c10.5.3,39.3.9,54,.3,18.2-.7,27.2-2.6,33.9-9.3s25.7-49.1,30.1-60.6c2.1-5.3,2.5-9.6,2-13.5l-2.5,1.6c-5.2,13.5-11.3,26.6-18.1,39.4Z"/>
        </g>
        <path class="cls-14" d="M302.5,165.3l-25.7,58.4s-69.9,13-76.3,13-19,4.5-21.6,6-27.9,13.1-23,13.9c3,.5,10.8-3.8,10.8-3.8,0,0-12.3,6-11.2,7.8s16-5.6,16-5.6c0,0-13.6,8-10.8,8.5,2.5.5,5.6-1,8.2-2.9,2.3-1.4,4.7-2.5,7.3-3.2,0,0-6,4-6.7,5.8s1.5.7,3.7,0c4.2-1.8,8.2-3.9,12.1-6.3,1.5-1.1,5.9-3.4,8.9-6l5.9-5.2s39.8,1.1,58,.4,27.2-2.6,33.9-9.3,25.7-49.1,30.1-60.6,1.5-18.2-3-26"/>
        <path class="cls-17" d="M302.1,163.9l-7.8,20.2c5.7-3.1,16.5-7.2,25.1-1,1.2-2.8,2.2-5.2,2.9-7,4.5-11.5,1.5-18.2-3-26"/>
        <path class="cls-9" d="M246.8,190.7c-7.5,2.2-37.4,10.9-40.1,11.6-1.7.4-3.5.7-5.2.9,0,0-10.4-4.5-13.2-6.5s-6.1-.8-7.8,0-3,6,.2,6,3.7-.2,7.2,2.8,3.5,4.5,6.1,5.6,6.9.4,9.1,0c2-.3,36.6-2.6,45.1-3.1,1.1-4.7,0-12-1.4-17.2Z"/>
        <g class="cls-29">
          <path class="cls-2" d="M248,196.1l-44.9,15c2-.3,36.6-2.6,45.1-3.1.8-3.3.5-7.7-.2-11.9Z"/>
        </g>
        <path class="cls-15" d="M246.8,190.7c-7.5,2.2-37.4,10.9-40.1,11.6-1.7.4-3.5.7-5.2.9,0,0-10.4-4.5-13.2-6.5s-6.1-.8-7.8,0-3,6,.2,6,3.7-.2,7.2,2.8,3.5,4.5,6.1,5.6,6.9.4,9.1,0c2-.3,36.6-2.6,45.1-3.1,1.1-4.7,0-12-1.4-17.2Z"/>
        <path class="cls-13" d="M172.3,202.9s-3.9,2.2-5,4.8,1.1,1.9,1.9,1.3,3.9-3.2,3.9-3.2l-.8-3Z"/>
        <path class="cls-13" d="M173.4,201c-1.5,1-2.3,2.7-2,4.5.4,3.2,3.7,7.8,4.1,6s-2.1-10.4-2.1-10.4Z"/>
        <path class="cls-13" d="M178.1,198.2s-3.5.9-4.6,2.8.7,9.9,2.1,10.4c1,.5,2.2,0,2.6-1,0-.2.1-.3.1-.5.4-1.3-.2-11.7-.2-11.7Z"/>
        <path class="cls-13" d="M182.5,196.4s-4.7,0-5.2,2.2-1.5,11.9-.6,13.4,2.4.9,3.2-.9,2.6-14.7,2.6-14.7Z"/>
        <path class="cls-6" d="M186.8,179l-7.6,34.8,1.2,4.4c0,.2.3.3.5.3,0,0,.1,0,.2-.1l3.3-3.3,5.6-35.2-3.1-.9Z"/>
        <path class="cls-13" d="M194.2,207.1s-4.3,1.7-7.6,3.2-6.7,2.2-6.3,4.3,1.9,1.3,4.3.6c3.3-1.2,6.8-2,10.2-2.4,4.6-.6,8.4-4.8,8.4-4.8"/>
        <path class="cls-22" d="M179.2,214.4l.8,3.3c.1.5.6.8,1.1.7.2,0,.3-.1.4-.2l1.8-1.7"/>
        <line class="cls-22" x1="179.1" y1="213.8" x2="183.1" y2="196.2"/>
        <line class="cls-18" x1="42.5" y1="144.7" x2="92.9" y2="191.7"/>
      </g>
    </g>
  </g>
</svg>