<?xml version="1.0" encoding="UTF-8"?>
<svg id="Capa_2" data-name="Capa 2" xmlns="http://www.w3.org/2000/svg" viewBox="0 0 222.05 22.41">
  <defs>
    <style>
      .cls-1 {
        opacity: .15;
      }

      .cls-2 {
        fill: #fff;
        stroke-width: 0px;
      }
    </style>
  </defs>
  <g id="Capa_1-2" data-name="Capa 1">
    <g class="cls-1">
      <g>
        <g>
          <path class="cls-2" d="M4.49,21.97c.07-.11.17-.15.47-.17.5-.05.89-.31,1.62-1.11.89-.98,1.74-2.25,2.45-3.67.75-1.48,1-2.31,1.27-4.13.22-1.47.25-2.79.09-4.32-.27-2.42-.94-3.72-2.25-4.29-.82-.35-1.98-.3-3.16.14-1.2.44-2.45,1.41-3.35,2.6-.42.56-1.01,1.62-.99,1.75.01.04.31,0,.65-.11.89-.26,1.37-.28,1.84-.1.55.22.88.57,1.16,1.27l.24.58.1-1.13c.09-1.53.4-4.19.52-4.41.15-.37.6-.38.72,0,.04.1-.03,1.33-.13,2.73-.44,6.08-.5,8.53-.18,11.09.09.73.16.99.25,1.05.18.11.16.5-.02.68-.21.21-.5.16-.67-.11-.22-.36-.59-2.93-.65-4.49-.08-2.54-.13-3.03-.27-4.01-.19-1.13-.52-2.08-.85-2.43-.38-.42-.74-.42-1.89-.11-.96.24-1.05.25-1.26.11-.18-.13-.2-.17-.18-.49.04-.44.49-1.41.96-2.05,1.07-1.51,2.97-2.97,4.29-3.27,2.19-.54,3.7-.13,4.79,1.32.35.47.41.63.73,1.61.84,2.77.65,6.61-.45,9.52-.73,1.9-2.7,4.79-3.94,5.78-.57.46-1.22.69-1.61.61-.34-.08-.44-.22-.29-.43Z"/>
          <path class="cls-2" d="M13.94,11c.14.09.28.29.33.45.07.22.1.25.21.18.05-.06.26-.16.43-.24.38-.18.63-.08,1.11.43.23.26.41.36.52.35.11-.01.77-.58,1.48-1.26.72-.67,1.38-1.25,1.44-1.26.18-.05.26.29.13.51-.12.19-1.85,1.91-2.38,2.36-.63.52-1.04.47-1.66-.27-.37-.42-.52-.35-1.39.7-1.18,1.47-1.5,1.72-1.91,1.49-.29-.15-.36-.48-.24-1.22.21-1.2.81-2.1,1.37-2.29.2-.06.39-.03.55.08ZM12.96,12.89c-.16.55-.15.66.04.43.08-.09.34-.39.58-.68.43-.48.44-.5.29-.7-.08-.13-.21-.2-.27-.18-.16.05-.51.63-.64,1.13Z"/>
          <path class="cls-2" d="M22.16,0c.34.06.46.2.61.77.29,1.11-.24,3.16-1.26,4.94-.41.74-1.14,1.7-1.32,1.75-.12.03-.17.19-.23,1.12-.18,2.15-.01,5.01.33,5.65.08.15.19.3.22.33.13.07.67-.35,1.15-.91.29-.31.82-1.1,1.23-1.77.64-1.12.86-1.59,1.5-3.21.24-.58.33-.65.53-.44.26.24-.67,2.49-1.82,4.37-1.28,2.13-2.2,2.92-3,2.54-1.18-.56-1.5-4-.82-8.84.33-2.32.79-3.87,1.48-5.04.42-.72.83-1.15,1.17-1.26.08-.02.15-.02.23-.02ZM21.9.83c-.71.68-1.43,3.06-1.72,5.67-.04.36.11.17.76-.89.87-1.48,1.37-3.04,1.35-4.21-.02-.58-.07-.76-.21-.7-.04.01-.12.05-.18.13Z"/>
          <path class="cls-2" d="M26.45,7.49c.31.49.02,1.48-.51,1.81-.28.17-.35.17-.69.09l-.36-.09-.03.33c-.02.3,0,.37.17.48.26.18.57.15,1.23-.15.84-.38,1.09-.57,3.41-2.67.64-.58.86-.67.93-.34.04.16-.12.33-1,1.15-1.56,1.45-2.55,2.22-3.25,2.53s-.87.35-1.22.3c-.93-.13-1.3-.82-1.02-1.94.23-.96.78-1.68,1.37-1.82.37-.08.81.05.97.31ZM25.09,8.69c.06.27.6.1.73-.21.05-.14.1-.32.12-.43,0-.17-.02-.19-.23-.14-.22.05-.66.6-.62.79Z"/>
          <path class="cls-2" d="M30.1,8.83l.39-.63-.47-.57c-.51-.63-.55-.85-.12-.94.21-.04.3.03.63.41.22.24.43.45.45.45.02,0,.27-.27.55-.58.56-.62.84-.74.94-.42.04.1,0,.21-.09.3-.33.26-.98,1.09-.95,1.17.03.04.25.19.49.31.36.21.54.26.85.22.38-.03.51-.12,2.29-1.49,1.02-.8,1.94-1.44,2-1.44.18.05.2.26.05.46-.21.25-3.35,2.74-3.72,2.92-.29.16-.85.23-1.18.17-.16-.03-.5-.18-.79-.32l-.48-.25-.4.59c-.36.54-.55.68-.72.59-.15-.12-.09-.35.26-.95Z"/>
          <path class="cls-2" d="M36.32,6.73c.14-.96.31-1.39.59-1.45.28-.09.5.2.4.51-.12.32-.26,1.42-.26,1.82v.38s.2-.33.2-.33c1.41-2.45,1.58-2.69,1.87-2.63.11.02.14.1.19.76.02.4.08.9.09,1.11q.06.37.33.33c.31-.07,2-1.13,3.03-1.89.7-.54.94-.62.99-.33.05.31-.42.68-2.59,2.11-1.23.81-1.53.92-1.96.76-.32-.16-.59-.63-.57-1.03,0-.15-.02-.25-.06-.24s-.28.38-.5.84c-.64,1.18-.99,1.48-1.47,1.13-.31-.23-.42-.91-.28-1.84Z"/>
          <path class="cls-2" d="M43.04,6.89c-.1-1.11.1-2.46.41-2.65.16-.1.22-.09.38.03.21.16.2.25.1,1.28l-.04.22.16-.23c.09-.12.3-.44.48-.72.33-.53.77-.86,1.07-.86.13,0,.31.13.46.3.13.17.34.34.47.36.35.08.52.1,1.7-.24.59-.18,1.14-.3,1.23-.29.11,0,.18.1.2.23.02.17-.01.21-.36.3-.22.07-.65.19-.95.31-.81.27-1.49.36-1.93.29-.34-.04-.46-.11-.95-.64-.08-.1-.82,1.02-1.27,1.92-.3.59-.56,1.02-.65,1.04-.08.01-.21-.01-.3-.07-.14-.09-.19-.19-.22-.58Z"/>
        </g>
        <path class="cls-2" d="M9.69,19.01c.19-.14.38-.26.57-.37.19-.12.38-.22.58-.32.38-.21.78-.38,1.18-.57.4-.18.8-.34,1.2-.52.4-.17.81-.32,1.21-.48l.61-.23.61-.22,1.23-.44,2.47-.8c3.31-1.03,6.67-1.89,10.03-2.72,3.37-.8,6.75-1.54,10.15-2.23l2.55-.51c.85-.17,1.7-.34,2.55-.49l5.11-.94-5.1.98c-.85.16-1.7.34-2.54.51l-2.54.53c-3.39.71-6.76,1.49-10.12,2.32-3.35.86-6.7,1.75-9.99,2.8l-2.46.82-1.22.44-.61.22-.6.24c-.4.16-.8.31-1.2.49-.39.18-.79.34-1.18.52-.38.19-.78.37-1.15.58-.19.1-.38.2-.56.31-.18.11-.37.23-.52.34h-.01c-.08.07-.2.06-.26-.03s-.04-.2.04-.26h0Z"/>
      </g>
      <g>
        <g>
          <path class="cls-2" d="M153.48,5.58c-3.11,0-5.63,2.52-5.63,5.63s2.52,5.63,5.63,5.63,5.63-2.52,5.63-5.63-2.52-5.63-5.63-5.63ZM153.48,16.42c-2.88,0-5.21-2.34-5.21-5.21s2.34-5.21,5.21-5.21,5.21,2.34,5.21,5.21-2.34,5.21-5.21,5.21Z"/>
          <path class="cls-2" d="M153.48,6.34c-2.68,0-4.87,2.18-4.87,4.87s2.18,4.87,4.87,4.87,4.87-2.18,4.87-4.87-2.18-4.87-4.87-4.87ZM153.47,12.04c-.28,0-.5-.22-.5-.5s.22-.5.5-.5.5.22.5.5-.22.5-.5.5ZM155.93,13.93h-.03c-.2,0-.37-.12-.45-.3l-.46-1.07h0l-.59-1.38-.8-1.89c-.05-.12-.23-.12-.28,0l-1,2.37h0l-.52,1.23-.32.75c-.08.18-.25.3-.45.3h0c-.35,0-.59-.36-.44-.68l2.2-4.99c.11-.24.35-.4.62-.4h.21c.24,0,.47.14.56.37l2.2,5.02c.14.32-.09.68-.45.68Z"/>
        </g>
        <g>
          <g>
            <path class="cls-2" d="M166.59,10.09c0,.55-.08,1.03-.25,1.44-.16.41-.39.75-.69,1.03-.3.27-.66.48-1.08.62-.42.14-.89.21-1.4.21-.12,0-.25,0-.39-.01-.15,0-.3-.02-.45-.04-.15-.02-.31-.04-.47-.07-.16-.03-.3-.07-.43-.12-.36-.13-.53-.36-.53-.7v-4.88c0-.14.04-.24.11-.32.07-.08.18-.14.31-.18.28-.09.58-.15.89-.17.31-.03.6-.04.86-.04.53,0,1.01.07,1.44.19.43.13.8.33,1.11.6.31.27.55.61.72,1.02.17.41.26.89.26,1.44ZM164.93,10.11c0-.66-.16-1.16-.49-1.48-.32-.32-.75-.49-1.27-.49-.12,0-.24,0-.35.01-.11,0-.22.02-.33.04v3.82c.09.02.2.04.32.05.13.01.25.02.36.02.53,0,.96-.16,1.27-.49.31-.32.47-.82.47-1.47Z"/>
            <path class="cls-2" d="M168.89,11.4c.1.29.26.49.5.61.24.12.52.18.83.18.29,0,.56-.04.81-.12.25-.08.46-.17.62-.26.1.07.19.16.26.27.07.11.1.23.1.36,0,.16-.05.29-.14.41-.1.12-.23.21-.39.29-.17.08-.37.14-.59.17-.23.04-.48.06-.75.06-.4,0-.78-.06-1.12-.17-.34-.11-.64-.28-.88-.5-.25-.22-.44-.5-.58-.84-.14-.33-.21-.73-.21-1.18s.07-.82.21-1.14c.14-.32.33-.59.56-.8.24-.21.51-.37.81-.47.3-.1.62-.15.94-.15.35,0,.67.05.96.16.29.11.54.25.75.45.21.19.37.42.49.69.12.27.17.56.17.87,0,.22-.06.38-.17.49-.12.11-.28.18-.49.22l-2.67.4ZM169.87,9.29c-.29,0-.54.09-.73.27-.19.18-.31.44-.34.78l1.96-.32c-.01-.18-.09-.35-.24-.5-.14-.16-.36-.24-.65-.24Z"/>
            <path class="cls-2" d="M176.97,8.18c.21,0,.39.05.54.14.15.1.22.26.22.48,0,.1-.03.26-.08.46-.05.21-.12.44-.2.7-.08.26-.18.54-.28.84-.11.3-.22.59-.33.87-.11.28-.22.55-.33.79-.11.25-.21.45-.3.62-.08.06-.21.11-.37.16-.17.04-.35.07-.56.07-.24,0-.44-.03-.62-.09-.17-.06-.29-.16-.37-.3-.06-.12-.14-.28-.22-.48-.09-.21-.18-.44-.28-.69-.1-.26-.2-.53-.3-.82-.1-.29-.2-.58-.3-.87-.1-.29-.18-.57-.27-.83-.08-.26-.15-.5-.19-.71.08-.09.2-.17.34-.23.15-.06.31-.1.48-.1.22,0,.4.05.53.14.14.09.24.26.31.51l.45,1.62c.08.29.16.57.25.85.08.28.14.49.18.65h.05c.16-.53.31-1.11.47-1.74.16-.63.3-1.24.44-1.85.21-.12.45-.17.73-.17Z"/>
            <path class="cls-2" d="M179.85,11.4c.1.29.26.49.5.61.24.12.52.18.83.18.29,0,.56-.04.81-.12.25-.08.46-.17.62-.26.1.07.19.16.26.27.07.11.1.23.1.36,0,.16-.05.29-.14.41-.1.12-.23.21-.39.29-.17.08-.37.14-.59.17-.23.04-.48.06-.75.06-.4,0-.78-.06-1.12-.17-.34-.11-.64-.28-.88-.5-.25-.22-.44-.5-.58-.84-.14-.33-.21-.73-.21-1.18s.07-.82.21-1.14c.14-.32.33-.59.56-.8.24-.21.51-.37.81-.47.3-.1.62-.15.94-.15.35,0,.67.05.96.16.29.11.54.25.75.45.21.19.37.42.49.69.12.27.17.56.17.87,0,.22-.06.38-.17.49-.12.11-.28.18-.49.22l-2.67.4ZM180.82,9.29c-.29,0-.54.09-.73.27-.19.18-.31.44-.34.78l1.96-.32c-.01-.18-.09-.35-.24-.5-.14-.16-.36-.24-.65-.24Z"/>
            <path class="cls-2" d="M185,13.29c-.31,0-.53-.05-.66-.15-.13-.1-.2-.29-.2-.58v-6.02c.07-.02.17-.04.29-.06.13-.02.26-.03.42-.03.3,0,.52.05.66.15.14.1.21.3.21.58v6.02c-.08.02-.17.04-.3.06-.12.02-.26.03-.41.03Z"/>
            <path class="cls-2" d="M191.94,10.75c0,.4-.06.77-.18,1.09-.12.32-.3.6-.53.83-.23.23-.5.4-.83.52-.32.12-.68.18-1.08.18s-.76-.06-1.08-.18c-.32-.12-.6-.29-.83-.52-.23-.23-.41-.5-.53-.83-.12-.32-.18-.69-.18-1.1s.06-.76.19-1.08c.13-.32.3-.6.53-.83.23-.23.51-.4.83-.52.32-.12.68-.18,1.07-.18s.75.06,1.07.18c.32.12.6.3.83.53.23.23.41.5.53.83.13.32.19.68.19,1.08ZM189.32,9.36c-.32,0-.57.12-.75.36-.18.24-.27.58-.27,1.03s.09.81.26,1.04.43.35.75.35.58-.12.75-.36c.17-.24.26-.58.26-1.04s-.09-.78-.27-1.02c-.18-.24-.43-.36-.75-.36Z"/>
            <path class="cls-2" d="M195.34,13.37c-.18,0-.34-.02-.49-.05-.15-.03-.29-.07-.41-.12v1.84c-.07.02-.16.04-.29.06-.12.02-.26.03-.41.03-.31,0-.53-.05-.67-.15-.14-.1-.21-.3-.21-.58v-5.08c0-.18.04-.32.11-.44.08-.11.18-.21.32-.3.21-.13.47-.24.79-.32.32-.09.68-.13,1.07-.13s.76.05,1.09.15c.33.1.62.25.86.47.24.21.43.48.56.81.13.33.2.72.2,1.17s-.06.81-.19,1.14c-.13.33-.3.61-.53.83-.23.22-.49.39-.8.5s-.64.17-1.01.17ZM195.11,12.13c.37,0,.65-.12.86-.35.2-.23.3-.58.3-1.06s-.1-.83-.29-1.05c-.19-.21-.47-.32-.82-.32-.16,0-.29.02-.41.06-.12.04-.22.08-.32.13v2.41c.1.05.2.1.31.13.11.03.23.05.37.05Z"/>
            <path class="cls-2" d="M206.26,13.21c-.08.02-.17.04-.3.06-.12.02-.26.03-.41.03-.31,0-.53-.05-.66-.15-.13-.1-.2-.29-.2-.58v-2.54c0-.23-.06-.39-.18-.5-.12-.11-.29-.16-.5-.16-.14,0-.27.02-.38.07-.12.05-.23.11-.32.18,0,.03.01.07.02.1,0,.03,0,.07,0,.1v3.38c-.08.02-.17.04-.3.06-.12.02-.26.03-.41.03-.31,0-.53-.05-.66-.15-.13-.1-.2-.29-.2-.58v-2.54c0-.23-.07-.39-.21-.5-.14-.11-.3-.16-.5-.16-.14,0-.27.02-.39.07-.12.04-.21.09-.29.13v3.65c-.07.02-.16.04-.29.06-.12.02-.26.03-.41.03-.31,0-.53-.05-.67-.15-.14-.1-.21-.29-.21-.58v-3.17c0-.18.04-.32.11-.43.08-.11.18-.21.32-.31.23-.16.5-.28.84-.38.33-.1.68-.14,1.04-.14.29,0,.56.04.82.12.26.08.49.2.7.36.21-.14.44-.25.7-.34.26-.09.57-.14.92-.14.27,0,.52.03.76.1.24.07.46.17.64.32.18.15.33.34.45.57s.17.52.17.86v3.23Z"/>
            <path class="cls-2" d="M208.76,11.4c.1.29.26.49.5.61.24.12.52.18.83.18.29,0,.56-.04.81-.12.25-.08.46-.17.62-.26.1.07.19.16.26.27.07.11.1.23.1.36,0,.16-.05.29-.14.41-.1.12-.23.21-.39.29-.17.08-.37.14-.59.17-.23.04-.48.06-.75.06-.4,0-.78-.06-1.12-.17-.34-.11-.64-.28-.88-.5-.25-.22-.44-.5-.58-.84-.14-.33-.21-.73-.21-1.18s.07-.82.21-1.14c.14-.32.33-.59.56-.8.24-.21.51-.37.81-.47.3-.1.62-.15.94-.15.35,0,.67.05.96.16.29.11.54.25.75.45.21.19.37.42.49.69.12.27.17.56.17.87,0,.22-.06.38-.17.49-.12.11-.28.18-.49.22l-2.67.4ZM209.73,9.29c-.29,0-.54.09-.73.27-.19.18-.31.44-.34.78l1.96-.32c-.01-.18-.09-.35-.24-.5-.14-.16-.36-.24-.65-.24Z"/>
            <path class="cls-2" d="M215.97,9.54c-.14-.12-.34-.17-.57-.17-.16,0-.31.02-.45.06-.14.04-.26.09-.38.15v3.63c-.07.02-.16.04-.29.06-.12.02-.26.03-.41.03-.31,0-.53-.05-.67-.15-.14-.1-.21-.29-.21-.58v-3.17c0-.18.04-.32.11-.43.08-.11.18-.21.32-.31.22-.16.5-.28.85-.38.35-.1.73-.14,1.14-.14.75,0,1.32.16,1.73.49.41.33.61.8.61,1.41v3.18c-.08.02-.17.04-.3.06-.12.02-.26.03-.41.03-.31,0-.53-.05-.66-.15-.13-.1-.2-.29-.2-.58v-2.49c0-.24-.07-.42-.22-.53Z"/>
            <path class="cls-2" d="M220.66,12c.12.09.29.13.51.13.1,0,.21-.01.33-.04.12-.02.22-.05.3-.09.06.07.11.15.15.24.04.09.06.19.06.31,0,.24-.09.44-.28.59-.19.15-.51.23-.98.23-.57,0-1.02-.13-1.34-.39-.32-.26-.48-.69-.48-1.29v-4.6c.08-.02.17-.04.3-.07.12-.02.26-.04.4-.04.3,0,.52.05.65.16.13.11.2.3.2.58v.67h1.42c.03.07.07.16.1.26.03.11.05.22.05.33,0,.22-.05.38-.15.47-.1.1-.23.14-.38.14h-1.04v1.99c0,.19.06.33.18.42Z"/>
          </g>
          <g>
            <path class="cls-2" d="M206.9,15.97c-.14,0-.25-.02-.34-.06-.09-.04-.16-.1-.21-.16-.05-.07-.08-.14-.08-.21,0-.01,0-.02.02-.03s.02-.02.04-.02h.12s.03,0,.04.01c0,0,.02.02.02.03,0,.04.03.08.06.11.03.04.07.07.13.09.06.02.13.04.22.04.14,0,.23-.02.3-.07.06-.05.1-.11.1-.19,0-.05-.02-.1-.05-.13-.03-.03-.09-.06-.15-.09-.07-.03-.16-.06-.27-.09-.11-.03-.21-.07-.29-.11-.08-.04-.13-.09-.17-.15-.04-.06-.06-.13-.06-.22,0-.08.02-.16.07-.23.05-.07.11-.12.2-.16.09-.04.19-.06.31-.06.1,0,.18.01.26.04.07.03.13.06.18.1.05.04.09.09.11.14.03.05.04.1.04.14,0,.01,0,.02-.01.03,0,.01-.02.02-.04.02h-.12s-.02,0-.03,0-.02-.02-.03-.04c0-.06-.05-.12-.11-.16-.06-.04-.14-.07-.25-.07s-.18.02-.25.06c-.06.04-.1.1-.1.18,0,.05.01.1.04.13s.08.07.14.09c.06.03.15.06.25.08.13.03.23.07.31.11.08.04.14.09.18.14.04.06.06.13.06.22,0,.1-.03.18-.08.25-.05.07-.12.12-.22.16-.09.04-.2.06-.33.06Z"/>
            <path class="cls-2" d="M208.6,15.94s-.03,0-.04-.02c0-.01-.01-.02-.01-.04v-1.54s0-.03.01-.04c0-.01.02-.02.04-.02h.97s.03,0,.04.02c0,.01.01.02.01.04v.09s0,.03-.01.04-.02.01-.04.01h-.8v.52h.75s.03,0,.04.02c0,.01.01.02.01.04v.09s0,.03-.01.04c0,.01-.02.02-.04.02h-.75v.53h.82s.03,0,.04.01c0,0,.01.02.01.04v.09s0,.03-.01.04c0,.01-.02.02-.04.02h-.99Z"/>
            <path class="cls-2" d="M210.73,15.94s-.03,0-.04-.02c0-.01-.01-.02-.01-.04v-1.54s0-.03.01-.04c0-.01.02-.02.04-.02h.57c.18,0,.32.04.42.12.1.08.16.21.16.37,0,.12-.03.22-.09.3-.06.08-.14.13-.25.16l.36.63s0,.02,0,.03c0,.01,0,.02-.02.03-.01,0-.02.01-.03.01h-.11s-.05,0-.06-.02c-.01-.01-.02-.03-.03-.04l-.34-.6h-.41v.61s0,.03-.02.04c-.01.01-.02.02-.04.02h-.12ZM210.91,15.08h.39c.12,0,.21-.02.26-.07.06-.05.09-.12.09-.22s-.03-.17-.09-.22c-.06-.05-.15-.08-.27-.08h-.39v.59Z"/>
            <path class="cls-2" d="M213.37,15.94s-.04,0-.06-.02c-.01-.01-.02-.03-.03-.04l-.53-1.52s0-.02,0-.03c0-.01,0-.02.01-.03s.02-.01.03-.01h.12s.03,0,.04.02c.01.01.02.02.02.03l.46,1.34.46-1.34s0-.02.02-.03c0-.01.02-.02.04-.02h.12s.02,0,.03.01c.01,0,.02.02.02.03,0,0,0,.02,0,.03l-.53,1.52s-.02.03-.03.04c-.01.01-.03.02-.06.02h-.15Z"/>
            <path class="cls-2" d="M215.18,15.94s-.03,0-.04-.02c0-.01-.01-.02-.01-.04v-1.54s0-.03.01-.04c0-.01.02-.02.04-.02h.12s.03,0,.04.02c0,.01.01.02.01.04v1.54s0,.03-.01.04c0,.01-.02.02-.04.02h-.12Z"/>
            <path class="cls-2" d="M217.07,15.97c-.14,0-.26-.03-.36-.08-.1-.05-.17-.13-.22-.22-.05-.1-.08-.21-.08-.33,0-.06,0-.13,0-.21s0-.14,0-.21c0-.13.03-.24.08-.33.05-.1.12-.17.22-.22.1-.05.21-.08.36-.08.11,0,.2.01.29.04.08.03.15.07.2.12.05.05.1.11.12.17.03.06.04.13.05.19,0,.01,0,.03-.01.04-.01,0-.02.01-.04.01h-.13s-.03,0-.04-.01c-.01,0-.02-.02-.02-.04-.03-.12-.08-.21-.15-.25-.07-.05-.16-.07-.27-.07-.13,0-.23.04-.3.11-.07.07-.11.19-.12.34,0,.13,0,.26,0,.4,0,.16.04.27.12.34.07.07.17.11.3.11.11,0,.2-.02.27-.07.07-.05.12-.13.15-.25,0-.02.01-.03.02-.04.01,0,.02-.01.04-.01h.13s.03,0,.04.01c.01,0,.01.02.01.03,0,.07-.02.13-.05.19-.03.06-.07.12-.12.17-.05.05-.12.09-.2.12-.08.03-.18.04-.29.04Z"/>
            <path class="cls-2" d="M218.81,15.94s-.03,0-.04-.02c0-.01-.01-.02-.01-.04v-1.54s0-.03.01-.04c0-.01.02-.02.04-.02h.97s.03,0,.04.02c0,.01.01.02.01.04v.09s0,.03-.01.04-.02.01-.04.01h-.8v.52h.75s.03,0,.04.02c0,.01.01.02.01.04v.09s0,.03-.01.04c0,.01-.02.02-.04.02h-.75v.53h.82s.03,0,.04.01c0,0,.01.02.01.04v.09s0,.03-.01.04c0,.01-.02.02-.04.02h-.99Z"/>
            <path class="cls-2" d="M221.42,15.97c-.14,0-.25-.02-.34-.06-.09-.04-.16-.1-.21-.16-.05-.07-.08-.14-.08-.21,0-.01,0-.02.02-.03s.02-.02.04-.02h.12s.03,0,.04.01c0,0,.02.02.02.03,0,.04.03.08.06.11.03.04.07.07.13.09.06.02.13.04.22.04.14,0,.23-.02.3-.07.06-.05.1-.11.1-.19,0-.05-.02-.1-.05-.13-.03-.03-.09-.06-.15-.09-.07-.03-.16-.06-.27-.09-.11-.03-.21-.07-.29-.11-.08-.04-.13-.09-.17-.15-.04-.06-.06-.13-.06-.22,0-.08.02-.16.07-.23.05-.07.11-.12.2-.16.09-.04.19-.06.31-.06.1,0,.18.01.26.04.07.03.13.06.18.1.05.04.09.09.11.14.03.05.04.1.04.14,0,.01,0,.02-.01.03,0,.01-.02.02-.04.02h-.12s-.02,0-.03,0-.02-.02-.03-.04c0-.06-.05-.12-.11-.16-.06-.04-.14-.07-.25-.07s-.18.02-.25.06c-.06.04-.1.1-.1.18,0,.05.01.1.04.13s.08.07.14.09c.06.03.15.06.25.08.13.03.23.07.31.11.08.04.14.09.18.14.04.06.06.13.06.22,0,.1-.03.18-.08.25-.05.07-.12.12-.22.16-.09.04-.2.06-.33.06Z"/>
          </g>
        </g>
      </g>
      <g>
        <g>
          <path class="cls-2" d="M76.27,12.27c-.73-.39-1.3-.95-1.72-1.67-.42-.72-.63-1.57-.63-2.54s.21-1.8.63-2.53c.42-.73,1-1.29,1.74-1.68.73-.39,1.56-.58,2.47-.58s1.74.19,2.47.58c.73.39,1.31.95,1.74,1.68.42.73.63,1.57.63,2.53s-.21,1.8-.64,2.53c-.43.73-1.01,1.29-1.75,1.68-.74.39-1.57.58-2.48.58s-1.73-.19-2.46-.58ZM80.13,9.78c.38-.4.58-.97.58-1.72s-.19-1.32-.56-1.72c-.37-.4-.83-.6-1.38-.6s-1.02.2-1.39.59c-.37.4-.55.97-.55,1.73s.18,1.32.54,1.72c.36.4.82.6,1.36.6s1.01-.2,1.39-.6Z"/>
          <path class="cls-2" d="M88.14,5.46c.39-.21.85-.32,1.38-.32.62,0,1.17.16,1.67.47.5.31.89.76,1.18,1.34.29.58.44,1.25.44,2.02s-.15,1.44-.44,2.03c-.29.58-.69,1.04-1.18,1.35-.5.32-1.06.48-1.67.48-.52,0-.98-.11-1.37-.32-.4-.21-.71-.49-.93-.83v4.61h-2.29V5.25h2.29v1.06c.22-.35.53-.63.92-.84ZM90.01,7.62c-.32-.33-.71-.49-1.17-.49s-.84.17-1.16.5c-.32.33-.48.78-.48,1.35s.16,1.02.48,1.35c.32.33.7.5,1.16.5s.84-.17,1.16-.5.48-.79.48-1.36-.16-1.02-.48-1.35Z"/>
          <path class="cls-2" d="M101.02,9.53h-5.18c.04.46.19.82.45,1.06.26.25.59.37.97.37.57,0,.97-.24,1.19-.72h2.44c-.13.49-.35.93-.68,1.33-.33.39-.73.7-1.23.92-.49.22-1.04.33-1.65.33-.73,0-1.38-.16-1.95-.47-.57-.31-1.02-.76-1.34-1.34-.32-.58-.48-1.26-.48-2.04s.16-1.45.48-2.04c.32-.58.76-1.03,1.33-1.34.57-.31,1.23-.47,1.97-.47s1.37.15,1.93.46c.56.3,1,.74,1.32,1.3.32.56.48,1.22.48,1.97,0,.21-.01.44-.04.67ZM98.72,8.26c0-.39-.13-.7-.4-.94-.27-.23-.6-.35-1-.35s-.71.11-.97.33c-.26.22-.43.54-.49.95h2.87Z"/>
          <path class="cls-2" d="M108.91,6.02c.52.57.78,1.35.78,2.34v4.36h-2.28v-4.06c0-.5-.13-.89-.39-1.16-.26-.28-.61-.42-1.04-.42s-.79.14-1.04.42c-.26.28-.39.67-.39,1.16v4.06h-2.29v-7.47h2.29v.99c.23-.33.54-.59.94-.78.39-.19.83-.29,1.33-.29.87,0,1.57.28,2.1.85Z"/>
          <path class="cls-2" d="M113.58,3.32v9.4h-2.29V3.32h2.29Z"/>
          <path class="cls-2" d="M123.65,12.72h-2.29l-3.83-5.8v5.8h-2.29V3.32h2.29l3.83,5.82V3.32h2.29v9.4Z"/>
        </g>
        <g>
          <path class="cls-2" d="M89.84,14.67v1.65h1.8v.53h-1.8v1.7h2.01v.53h-2.66v-4.95h2.66v.53h-2.01Z"/>
          <path class="cls-2" d="M92.83,16.08c.16-.3.38-.53.66-.7.28-.17.6-.25.95-.25.3,0,.58.07.84.21.26.14.46.32.6.55v-2.06h.65v5.24h-.65v-.73c-.13.23-.32.42-.57.57s-.54.22-.88.22-.66-.09-.94-.26c-.28-.17-.5-.41-.66-.72-.16-.31-.24-.66-.24-1.05s.08-.75.24-1.05ZM95.7,16.37c-.12-.22-.28-.38-.48-.5-.2-.12-.42-.17-.66-.17s-.46.06-.66.17-.36.28-.47.5c-.12.22-.18.47-.18.77s.06.56.18.78c.12.22.28.39.47.5.2.12.42.17.66.17s.46-.06.66-.17c.2-.12.36-.28.48-.5.12-.22.18-.48.18-.77s-.06-.55-.18-.77Z"/>
          <path class="cls-2" d="M101.07,15.2v3.88h-.64v-.57c-.12.2-.29.35-.51.46s-.46.17-.73.17c-.3,0-.57-.06-.81-.19-.24-.13-.43-.31-.57-.56-.14-.25-.21-.56-.21-.91v-2.27h.64v2.19c0,.38.1.68.29.88.19.21.46.31.79.31s.62-.11.82-.32c.2-.21.3-.52.3-.93v-2.13h.64Z"/>
          <path class="cls-2" d="M102.16,16.08c.16-.3.38-.53.67-.7.29-.17.61-.25.98-.25.48,0,.87.12,1.18.35.31.23.51.55.61.96h-.69c-.07-.24-.19-.42-.39-.56-.19-.14-.43-.21-.71-.21-.37,0-.67.13-.89.38-.23.25-.34.61-.34,1.07s.11.83.34,1.08c.23.26.52.38.89.38.28,0,.52-.07.71-.2.19-.13.32-.32.39-.57h.69c-.1.4-.31.71-.62.95-.31.24-.7.36-1.17.36-.37,0-.7-.08-.98-.25-.29-.17-.51-.4-.67-.7-.16-.3-.24-.66-.24-1.06s.08-.75.24-1.05Z"/>
          <path class="cls-2" d="M106.46,16.08c.16-.3.38-.53.66-.7.28-.17.59-.25.94-.25s.64.07.89.22c.25.15.44.33.56.55v-.71h.65v3.88h-.65v-.72c-.13.23-.32.41-.57.56-.25.15-.55.22-.88.22s-.66-.09-.94-.26c-.28-.17-.5-.41-.66-.72-.16-.31-.24-.66-.24-1.05s.08-.75.24-1.05ZM109.33,16.37c-.12-.22-.28-.38-.48-.5-.2-.12-.42-.17-.66-.17s-.46.06-.66.17-.36.28-.47.5c-.12.22-.18.47-.18.77s.06.56.18.78c.12.22.28.39.47.5.2.12.42.17.66.17s.46-.06.66-.17c.2-.12.36-.28.48-.5.12-.22.18-.48.18-.77s-.06-.55-.18-.77Z"/>
          <path class="cls-2" d="M112.04,15.73v2.29c0,.19.04.32.12.4.08.08.22.12.42.12h.47v.55h-.58c-.36,0-.63-.08-.81-.25-.18-.17-.27-.44-.27-.81v-2.29h-.5v-.53h.5v-.98h.64v.98h1.01v.53h-1.01Z"/>
          <path class="cls-2" d="M113.85,14.44c-.09-.09-.13-.19-.13-.31s.04-.23.13-.31.19-.13.31-.13.22.04.3.13c.08.09.12.19.12.31s-.04.23-.12.31c-.08.09-.18.13-.3.13s-.23-.04-.31-.13ZM114.47,15.2v3.88h-.64v-3.88h.64Z"/>
          <path class="cls-2" d="M116.28,18.9c-.3-.17-.53-.4-.69-.71-.17-.3-.25-.66-.25-1.06s.09-.75.26-1.05c.17-.3.41-.54.71-.7.3-.16.63-.24,1-.24s.7.08,1,.24c.3.16.53.4.71.7.17.3.26.65.26,1.06s-.09.75-.27,1.06c-.18.3-.42.54-.72.71-.3.17-.64.25-1.01.25s-.69-.08-.99-.25ZM117.92,18.42c.2-.11.37-.27.49-.49.13-.22.19-.48.19-.79s-.06-.58-.18-.79c-.12-.22-.28-.38-.48-.49s-.41-.16-.64-.16-.45.05-.65.16c-.2.11-.35.27-.47.49-.12.22-.18.48-.18.79s.06.58.17.8c.12.22.27.38.46.49.19.11.41.16.64.16s.45-.05.65-.16Z"/>
          <path class="cls-2" d="M123.15,15.56c.29.29.44.7.44,1.24v2.29h-.64v-2.2c0-.39-.1-.68-.29-.89-.19-.21-.46-.31-.79-.31s-.61.11-.81.32-.3.52-.3.93v2.15h-.64v-3.88h.64v.55c.13-.2.3-.35.52-.46.22-.11.46-.16.73-.16.47,0,.86.14,1.15.43Z"/>
        </g>
      </g>
    </g>
  </g>
</svg>