<?xml version="1.0" encoding="UTF-8"?>
<svg id="Capa_2" data-name="Capa 2" xmlns="http://www.w3.org/2000/svg" version="1.1" viewBox="0 0 222.1 22.4">
  <defs>
    <style>
      .cls-1 {
        fill: #000;
        stroke-width: 0px;
      }

      .cls-2 {
        opacity: .2;
      }
    </style>
  </defs>
  <g id="Capa_1-2" data-name="Capa 1-2">
    <g class="cls-2">
      <g>
        <g>
          <path class="cls-1" d="M4.5,22c0-.1.2-.1.5-.2.5,0,.9-.3,1.6-1.1.9-1,1.7-2.2,2.5-3.7.8-1.5,1-2.3,1.3-4.1.2-1.5.2-2.8,0-4.3-.3-2.4-.9-3.7-2.2-4.3-.8-.3-2-.3-3.2.1-1.2.4-2.5,1.4-3.3,2.6-.4.6-1,1.6-1,1.8,0,0,.3,0,.6-.1.9-.3,1.4-.3,1.8-.1.5.2.9.6,1.2,1.3l.2.6v-1.1c.2-1.5.5-4.2.6-4.4.2-.4.6-.4.7,0,0,0,0,1.3-.1,2.7-.4,6.1-.5,8.5-.2,11.1,0,.7.2,1,.2,1,.2.1.2.5,0,.7-.2.2-.5.2-.7-.1-.2-.4-.6-2.9-.7-4.5,0-2.5-.1-3-.3-4-.2-1.1-.5-2.1-.8-2.4-.4-.4-.7-.4-1.9-.1-1,.2-1,.2-1.3.1C0,9.2,0,9.2,0,8.9c0-.4.5-1.4,1-2.1,1.1-1.5,3-3,4.3-3.3,2.2-.5,3.7-.1,4.8,1.3.4.5.4.6.7,1.6.8,2.8.6,6.6-.4,9.5-.7,1.9-2.7,4.8-3.9,5.8-.6.5-1.2.7-1.6.6-.3,0-.4-.2-.3-.4h0Z"/>
          <path class="cls-1" d="M13.9,11c.1,0,.3.3.3.4,0,.2.1.2.2.2,0,0,.3-.2.4-.2.4-.2.6,0,1.1.4.2.3.4.4.5.4.1,0,.8-.6,1.5-1.3.7-.7,1.4-1.2,1.4-1.3.2,0,.3.3.1.5-.1.2-1.9,1.9-2.4,2.4-.6.5-1,.5-1.7-.3-.4-.4-.5-.4-1.4.7-1.2,1.5-1.5,1.7-1.9,1.5-.3-.1-.4-.5-.2-1.2.2-1.2.8-2.1,1.4-2.3.2,0,.4,0,.6,0h0ZM13,12.9c-.2.6-.1.7,0,.4,0,0,.3-.4.6-.7.4-.5.4-.5.3-.7,0-.1-.2-.2-.3-.2-.2,0-.5.6-.6,1.1Z"/>
          <path class="cls-1" d="M22.2,0c.3,0,.5.2.6.8.3,1.1-.2,3.2-1.3,4.9-.4.7-1.1,1.7-1.3,1.8-.1,0-.2.2-.2,1.1-.2,2.1,0,5,.3,5.6,0,.1.2.3.2.3.1,0,.7-.4,1.1-.9.3-.3.8-1.1,1.2-1.8.6-1.1.9-1.6,1.5-3.2.2-.6.3-.6.5-.4.3.2-.7,2.5-1.8,4.4-1.3,2.1-2.2,2.9-3,2.5-1.2-.6-1.5-4-.8-8.8.3-2.3.8-3.9,1.5-5C21.2.5,21.6.1,21.9,0c0,0,.1,0,.2,0h0ZM21.9.8c-.7.7-1.4,3.1-1.7,5.7,0,.4.1.2.8-.9.9-1.5,1.4-3,1.4-4.2,0-.6,0-.8-.2-.7,0,0-.1,0-.2.1Z"/>
          <path class="cls-1" d="M26.5,7.5c.3.5,0,1.5-.5,1.8-.3.2-.4.2-.7,0h-.4c0,0,0,.2,0,.2,0,.3,0,.4.2.5.3.2.6.1,1.2-.1.8-.4,1.1-.6,3.4-2.7.6-.6.9-.7.9-.3,0,.2-.1.3-1,1.1-1.6,1.4-2.5,2.2-3.2,2.5s-.9.4-1.2.3c-.9-.1-1.3-.8-1-1.9.2-1,.8-1.7,1.4-1.8.4,0,.8,0,1,.3h0ZM25.1,8.7c0,.3.6.1.7-.2,0-.1.1-.3.1-.4,0-.2,0-.2-.2-.1-.2,0-.7.6-.6.8h0Z"/>
          <path class="cls-1" d="M30.1,8.8l.4-.6-.5-.6c-.5-.6-.5-.8-.1-.9.2,0,.3,0,.6.4.2.2.4.4.5.4s.3-.3.5-.6c.6-.6.8-.7.9-.4,0,0,0,.2,0,.3-.3.3-1,1.1-1,1.2,0,0,.2.2.5.3.4.2.5.3.9.2.4,0,.5-.1,2.3-1.5,1-.8,1.9-1.4,2-1.4.2,0,.2.3,0,.5-.2.2-3.3,2.7-3.7,2.9-.3.2-.8.2-1.2.2-.2,0-.5-.2-.8-.3l-.5-.2-.4.6c-.4.5-.5.7-.7.6-.1-.1,0-.4.3-.9h0Z"/>
          <path class="cls-1" d="M36.3,6.7c.1-1,.3-1.4.6-1.5.3,0,.5.2.4.5-.1.3-.3,1.4-.3,1.8v.4l.2-.3c1.4-2.5,1.6-2.7,1.9-2.6.1,0,.1,0,.2.8,0,.4,0,.9,0,1.1,0,.2.2.4.3.3.3,0,2-1.1,3-1.9.7-.5.9-.6,1-.3,0,.3-.4.7-2.6,2.1-1.2.8-1.5.9-2,.8-.3-.2-.6-.6-.6-1,0-.2,0-.2,0-.2s-.3.4-.5.8c-.6,1.2-1,1.5-1.5,1.1-.3-.2-.4-.9-.3-1.8h0Z"/>
          <path class="cls-1" d="M43,6.9c0-1.1,0-2.5.4-2.7.2,0,.2,0,.4,0,.2.2.2.2,0,1.3v.2s.1-.2.1-.2c0-.1.3-.4.5-.7.3-.5.8-.9,1.1-.9s.3.1.5.3c.1.2.3.3.5.4.3,0,.5,0,1.7-.2.6-.2,1.1-.3,1.2-.3.1,0,.2,0,.2.2,0,.2,0,.2-.4.3-.2,0-.7.2-1,.3-.8.3-1.5.4-1.9.3-.3,0-.5-.1-1-.6,0,0-.8,1-1.3,1.9-.3.6-.6,1-.7,1,0,0-.2,0-.3,0-.1,0-.2-.2-.2-.6h0Z"/>
        </g>
        <path class="cls-1" d="M9.7,19c.2-.1.4-.3.6-.4.2-.1.4-.2.6-.3.4-.2.8-.4,1.2-.6.4-.2.8-.3,1.2-.5.4-.2.8-.3,1.2-.5l.6-.2.6-.2,1.2-.4,2.5-.8c3.3-1,6.7-1.9,10-2.7,3.4-.8,6.8-1.5,10.2-2.2l2.5-.5c.8-.2,1.7-.3,2.5-.5l5.1-.9-5.1,1c-.8.2-1.7.3-2.5.5l-2.5.5c-3.4.7-6.8,1.5-10.1,2.3-3.4.9-6.7,1.8-10,2.8l-2.5.8-1.2.4-.6.2-.6.2c-.4.2-.8.3-1.2.5-.4.2-.8.3-1.2.5-.4.2-.8.4-1.1.6-.2.1-.4.2-.6.3-.2.1-.4.2-.5.3h0c0,0-.2,0-.3,0s0-.2,0-.3h0Z"/>
      </g>
      <g>
        <g>
          <path class="cls-1" d="M153.5,5.6c-3.1,0-5.6,2.5-5.6,5.6s2.5,5.6,5.6,5.6,5.6-2.5,5.6-5.6-2.5-5.6-5.6-5.6ZM153.5,16.4c-2.9,0-5.2-2.3-5.2-5.2s2.3-5.2,5.2-5.2,5.2,2.3,5.2,5.2-2.3,5.2-5.2,5.2Z"/>
          <path class="cls-1" d="M153.5,6.3c-2.7,0-4.9,2.2-4.9,4.9s2.2,4.9,4.9,4.9,4.9-2.2,4.9-4.9-2.2-4.9-4.9-4.9ZM153.5,12c-.3,0-.5-.2-.5-.5s.2-.5.5-.5.5.2.5.5-.2.5-.5.5ZM155.9,13.9h0c-.2,0-.4-.1-.4-.3l-.5-1.1h0l-.6-1.4-.8-1.9c0-.1-.2-.1-.3,0l-1,2.4h0l-.5,1.2-.3.8c0,.2-.2.3-.4.3h0c-.4,0-.6-.4-.4-.7l2.2-5c.1-.2.4-.4.6-.4h.2c.2,0,.5.1.6.4l2.2,5c.1.3,0,.7-.4.7h0Z"/>
        </g>
        <g>
          <g>
            <path class="cls-1" d="M166.6,10.1c0,.6,0,1-.2,1.4-.2.4-.4.8-.7,1-.3.3-.7.5-1.1.6s-.9.2-1.4.2-.2,0-.4,0c-.1,0-.3,0-.4,0-.1,0-.3,0-.5,0s-.3,0-.4-.1c-.4-.1-.5-.4-.5-.7v-4.9c0-.1,0-.2.1-.3,0,0,.2-.1.3-.2.3,0,.6-.2.9-.2.3,0,.6,0,.9,0,.5,0,1,0,1.4.2.4.1.8.3,1.1.6s.6.6.7,1,.3.9.3,1.4h0ZM164.9,10.1c0-.7-.2-1.2-.5-1.5-.3-.3-.8-.5-1.3-.5s-.2,0-.4,0c-.1,0-.2,0-.3,0v3.8c0,0,.2,0,.3,0,.1,0,.2,0,.4,0,.5,0,1-.2,1.3-.5.3-.3.5-.8.5-1.5h0Z"/>
            <path class="cls-1" d="M168.9,11.4c.1.3.3.5.5.6s.5.2.8.2.6,0,.8-.1.5-.2.6-.3c.1,0,.2.2.3.3,0,.1.1.2.1.4s0,.3-.1.4c-.1.1-.2.2-.4.3-.2,0-.4.1-.6.2-.2,0-.5,0-.8,0-.4,0-.8,0-1.1-.2s-.6-.3-.9-.5c-.2-.2-.4-.5-.6-.8-.1-.3-.2-.7-.2-1.2s0-.8.2-1.1c.1-.3.3-.6.6-.8.2-.2.5-.4.8-.5s.6-.1.9-.1.7,0,1,.2c.3.1.5.2.8.4.2.2.4.4.5.7.1.3.2.6.2.9s0,.4-.2.5c-.1.1-.3.2-.5.2l-2.7.4h0ZM169.9,9.3c-.3,0-.5,0-.7.3s-.3.4-.3.8l2-.3c0-.2,0-.4-.2-.5-.1-.2-.4-.2-.6-.2h0Z"/>
            <path class="cls-1" d="M177,8.2c.2,0,.4,0,.5.1.1.1.2.3.2.5s0,.3,0,.5c0,.2-.1.4-.2.7s-.2.5-.3.8c-.1.3-.2.6-.3.9s-.2.6-.3.8c-.1.2-.2.4-.3.6,0,0-.2.1-.4.2-.2,0-.4,0-.6,0s-.4,0-.6,0c-.2,0-.3-.2-.4-.3,0-.1-.1-.3-.2-.5,0-.2-.2-.4-.3-.7-.1-.3-.2-.5-.3-.8s-.2-.6-.3-.9-.2-.6-.3-.8c0-.3-.1-.5-.2-.7,0,0,.2-.2.3-.2.1,0,.3-.1.5-.1s.4,0,.5.1c.1,0,.2.3.3.5l.4,1.6c0,.3.2.6.2.9,0,.3.1.5.2.6h0c.2-.5.3-1.1.5-1.7s.3-1.2.4-1.9c.2-.1.4-.2.7-.2h0Z"/>
            <path class="cls-1" d="M179.9,11.4c.1.3.3.5.5.6s.5.2.8.2.6,0,.8-.1.5-.2.6-.3c.1,0,.2.2.3.3,0,.1.1.2.1.4s0,.3-.1.4c-.1.1-.2.2-.4.3-.2,0-.4.1-.6.2-.2,0-.5,0-.8,0-.4,0-.8,0-1.1-.2s-.6-.3-.9-.5c-.2-.2-.4-.5-.6-.8-.1-.3-.2-.7-.2-1.2s0-.8.2-1.1c.1-.3.3-.6.6-.8.2-.2.5-.4.8-.5s.6-.1.9-.1.7,0,1,.2c.3.1.5.2.8.4.2.2.4.4.5.7.1.3.2.6.2.9s0,.4-.2.5c-.1.1-.3.2-.5.2l-2.7.4h0ZM180.8,9.3c-.3,0-.5,0-.7.3s-.3.4-.3.8l2-.3c0-.2,0-.4-.2-.5-.1-.2-.4-.2-.6-.2h0Z"/>
            <path class="cls-1" d="M185,13.3c-.3,0-.5,0-.7-.1-.1-.1-.2-.3-.2-.6v-6c0,0,.2,0,.3,0,.1,0,.3,0,.4,0,.3,0,.5,0,.7.2s.2.3.2.6v6c0,0-.2,0-.3,0-.1,0-.3,0-.4,0h0Z"/>
            <path class="cls-1" d="M191.9,10.8c0,.4,0,.8-.2,1.1s-.3.6-.5.8-.5.4-.8.5c-.3.1-.7.2-1.1.2s-.8,0-1.1-.2-.6-.3-.8-.5c-.2-.2-.4-.5-.5-.8-.1-.3-.2-.7-.2-1.1s0-.8.2-1.1.3-.6.5-.8.5-.4.8-.5c.3-.1.7-.2,1.1-.2s.8,0,1.1.2.6.3.8.5.4.5.5.8c.1.3.2.7.2,1.1h0ZM189.3,9.4c-.3,0-.6.1-.8.4s-.3.6-.3,1,0,.8.3,1,.4.4.8.4.6-.1.8-.4.3-.6.3-1,0-.8-.3-1c-.2-.2-.4-.4-.8-.4h0Z"/>
            <path class="cls-1" d="M195.3,13.4c-.2,0-.3,0-.5,0-.1,0-.3,0-.4-.1v1.8c0,0-.2,0-.3,0-.1,0-.3,0-.4,0-.3,0-.5,0-.7-.1-.1-.1-.2-.3-.2-.6v-5.1c0-.2,0-.3.1-.4,0-.1.2-.2.3-.3.2-.1.5-.2.8-.3.3,0,.7-.1,1.1-.1s.8,0,1.1.1c.3.1.6.2.9.5.2.2.4.5.6.8.1.3.2.7.2,1.2s0,.8-.2,1.1-.3.6-.5.8-.5.4-.8.5-.6.2-1,.2h0ZM195.1,12.1c.4,0,.6-.1.9-.4.2-.2.3-.6.3-1.1s-.1-.8-.3-1.1c-.2-.2-.5-.3-.8-.3s-.3,0-.4,0c-.1,0-.2,0-.3.1v2.4c.1,0,.2.1.3.1s.2,0,.4,0h0Z"/>
            <path class="cls-1" d="M206.3,13.2c0,0-.2,0-.3,0-.1,0-.3,0-.4,0-.3,0-.5,0-.7-.1-.1-.1-.2-.3-.2-.6v-2.5c0-.2,0-.4-.2-.5s-.3-.2-.5-.2-.3,0-.4,0c-.1,0-.2.1-.3.2,0,0,0,0,0,.1h0v3.5c0,0-.2,0-.3,0-.1,0-.3,0-.4,0-.3,0-.5,0-.7-.1-.1-.1-.2-.3-.2-.6v-2.5c0-.2,0-.4-.2-.5s-.3-.2-.5-.2-.3,0-.4,0c-.1,0-.2,0-.3.1v3.7c0,0-.2,0-.3,0-.1,0-.3,0-.4,0-.3,0-.5,0-.7-.1-.1-.1-.2-.3-.2-.6v-3.2c0-.2,0-.3.1-.4,0-.1.2-.2.3-.3.2-.2.5-.3.8-.4.3-.1.7-.1,1-.1s.6,0,.8.1c.3,0,.5.2.7.4.2-.1.4-.2.7-.3s.6-.1.9-.1.5,0,.8.1c.2,0,.5.2.6.3s.3.3.4.6.2.5.2.9v3.2h0Z"/>
            <path class="cls-1" d="M208.8,11.4c.1.3.3.5.5.6s.5.2.8.2.6,0,.8-.1.5-.2.6-.3c.1,0,.2.2.3.3,0,.1.1.2.1.4s0,.3-.1.4c-.1.1-.2.2-.4.3-.2,0-.4.1-.6.2-.2,0-.5,0-.8,0-.4,0-.8,0-1.1-.2s-.6-.3-.9-.5c-.2-.2-.4-.5-.6-.8-.1-.3-.2-.7-.2-1.2s0-.8.2-1.1c.1-.3.3-.6.6-.8.2-.2.5-.4.8-.5s.6-.1.9-.1.7,0,1,.2c.3.1.5.2.8.4.2.2.4.4.5.7.1.3.2.6.2.9s0,.4-.2.5c-.1.1-.3.2-.5.2l-2.7.4h0ZM209.7,9.3c-.3,0-.5,0-.7.3s-.3.4-.3.8l2-.3c0-.2,0-.4-.2-.5-.1-.2-.4-.2-.6-.2h0Z"/>
            <path class="cls-1" d="M216,9.5c-.1-.1-.3-.2-.6-.2s-.3,0-.4,0-.3,0-.4.1v3.6c0,0-.2,0-.3,0-.1,0-.3,0-.4,0-.3,0-.5,0-.7-.1-.1-.1-.2-.3-.2-.6v-3.2c0-.2,0-.3.1-.4,0-.1.2-.2.3-.3.2-.2.5-.3.9-.4s.7-.1,1.1-.1c.8,0,1.3.2,1.7.5.4.3.6.8.6,1.4v3.2c0,0-.2,0-.3,0-.1,0-.3,0-.4,0-.3,0-.5,0-.7-.1-.1-.1-.2-.3-.2-.6v-2.5c0-.2,0-.4-.2-.5h0Z"/>
            <path class="cls-1" d="M220.7,12c.1,0,.3.1.5.1s.2,0,.3,0c.1,0,.2,0,.3,0,0,0,.1.1.1.2s0,.2,0,.3c0,.2,0,.4-.3.6-.2.1-.5.2-1,.2s-1-.1-1.3-.4c-.3-.3-.5-.7-.5-1.3v-4.6c0,0,.2,0,.3,0,.1,0,.3,0,.4,0,.3,0,.5,0,.6.2.1.1.2.3.2.6v.7h1.4c0,0,0,.2.1.3,0,.1,0,.2,0,.3,0,.2,0,.4-.1.5-.1.1-.2.1-.4.1h-1v2c0,.2,0,.3.2.4Z"/>
          </g>
          <g>
            <path class="cls-1" d="M206.9,16c-.1,0-.2,0-.3,0s-.2-.1-.2-.2c0,0,0-.1,0-.2s0,0,0,0,0,0,0,0h.1s0,0,0,0c0,0,0,0,0,0,0,0,0,0,0,.1,0,0,0,0,.1,0s.1,0,.2,0c.1,0,.2,0,.3,0,0,0,.1-.1.1-.2s0-.1,0-.1,0,0-.1,0c0,0-.2,0-.3,0s-.2,0-.3-.1c0,0-.1,0-.2-.1,0,0,0-.1,0-.2s0-.2,0-.2.1-.1.2-.2.2,0,.3,0,.2,0,.3,0c0,0,.1,0,.2.1,0,0,0,0,.1.1,0,0,0,.1,0,.1s0,0,0,0c0,0,0,0,0,0h-.1s0,0,0,0c0,0,0-.1-.1-.2s-.1,0-.2,0-.2,0-.2,0c0,0-.1.1-.1.2s0,.1,0,.1,0,0,.1,0c0,0,.1,0,.2,0,.1,0,.2,0,.3.1s.1,0,.2.1c0,0,0,.1,0,.2s0,.2,0,.2-.1.1-.2.2c0,0-.2,0-.3,0h0Z"/>
            <path class="cls-1" d="M208.6,15.9s0,0,0,0c0,0,0,0,0,0v-1.5s0,0,0,0c0,0,0,0,0,0h1s0,0,0,0c0,0,0,0,0,0h0c0,0,0,.1,0,.1s0,0,0,0h-.8v.5h.8s0,0,0,0c0,0,0,0,0,0h0c0,0,0,.1,0,.1,0,0,0,0,0,0h-.8v.5h.8s0,0,0,0c0,0,0,0,0,0h0c0,0,0,.1,0,.1,0,0,0,0,0,0,0,0-1,0-1,0Z"/>
            <path class="cls-1" d="M210.7,15.9s0,0,0,0c0,0,0,0,0,0v-1.5s0,0,0,0c0,0,0,0,0,0h.6c.2,0,.3,0,.4.1.1,0,.2.2.2.4s0,.2,0,.3-.1.1-.2.2l.4.6h0s0,0,0,0c0,0,0,0,0,0h-.1s0,0,0,0c0,0,0,0,0,0l-.3-.6h-.4v.6s0,0,0,0c0,0,0,0,0,0h-.1,0ZM210.9,15.1h.4c.1,0,.2,0,.3,0,0,0,0-.1,0-.2s0-.2,0-.2-.1,0-.3,0h-.4v.6h0Z"/>
            <path class="cls-1" d="M213.4,15.9s0,0,0,0c0,0,0,0,0,0l-.5-1.5h0s0,0,0,0,0,0,0,0h.1s0,0,0,0c0,0,0,0,0,0l.5,1.3.5-1.3s0,0,0,0c0,0,0,0,0,0h.1s0,0,0,0c0,0,0,0,0,0h0s-.5,1.6-.5,1.6c0,0,0,0,0,0s0,0,0,0h-.1,0Z"/>
            <path class="cls-1" d="M215.2,15.9s0,0,0,0c0,0,0,0,0,0v-1.5s0,0,0,0c0,0,0,0,0,0h.1s0,0,0,0c0,0,0,0,0,0v1.5s0,0,0,0c0,0,0,0,0,0h-.1Z"/>
            <path class="cls-1" d="M217.1,16c-.1,0-.3,0-.4,0s-.2-.1-.2-.2c0-.1,0-.2,0-.3v-.4c0-.1,0-.2,0-.3,0-.1.1-.2.2-.2s.2,0,.4,0,.2,0,.3,0c0,0,.1,0,.2.1s.1.1.1.2c0,0,0,.1,0,.2,0,0,0,0,0,0,0,0,0,0,0,0h-.1s0,0,0,0c0,0,0,0,0,0,0-.1,0-.2-.1-.2,0,0-.2,0-.3,0s-.2,0-.3.1-.1.2-.1.3v.4c0,.2,0,.3.1.3,0,0,.2.1.3.1s.2,0,.3,0c0,0,.1-.1.1-.2,0,0,0,0,0,0,0,0,0,0,0,0h.1s0,0,0,0c0,0,0,0,0,0,0,0,0,.1,0,.2,0,0,0,.1-.1.2,0,0-.1,0-.2.1s-.2,0-.3,0h0Z"/>
            <path class="cls-1" d="M218.8,15.9s0,0,0,0c0,0,0,0,0,0v-1.5s0,0,0,0c0,0,0,0,0,0h1s0,0,0,0c0,0,0,0,0,0h0c0,0,0,.1,0,.1s0,0,0,0h-.8v.5h.8s0,0,0,0c0,0,0,0,0,0h0c0,0,0,.1,0,.1,0,0,0,0,0,0h-.8v.5h.8s0,0,0,0c0,0,0,0,0,0h0c0,0,0,.1,0,.1,0,0,0,0,0,0,0,0-1,0-1,0Z"/>
            <path class="cls-1" d="M221.4,16c-.1,0-.2,0-.3,0s-.2-.1-.2-.2c0,0,0-.1,0-.2s0,0,0,0,0,0,0,0h.1s0,0,0,0c0,0,0,0,0,0,0,0,0,0,0,.1,0,0,0,0,.1,0s.1,0,.2,0c.1,0,.2,0,.3,0,0,0,.1-.1.1-.2s0-.1,0-.1,0,0-.1,0c0,0-.2,0-.3,0s-.2,0-.3-.1c0,0-.1,0-.2-.1,0,0,0-.1,0-.2s0-.2,0-.2.1-.1.2-.2.2,0,.3,0,.2,0,.3,0c0,0,.1,0,.2.1,0,0,0,0,.1.1,0,0,0,.1,0,.1s0,0,0,0c0,0,0,0,0,0h-.1s0,0,0,0c0,0,0-.1-.1-.2s-.1,0-.2,0-.2,0-.2,0c0,0-.1.1-.1.2s0,.1,0,.1,0,0,.1,0c0,0,.1,0,.2,0,.1,0,.2,0,.3.1s.1,0,.2.1c0,0,0,.1,0,.2s0,.2,0,.2-.1.1-.2.2c0,0-.2,0-.3,0h0Z"/>
          </g>
        </g>
      </g>
      <g>
        <g>
          <path class="cls-1" d="M76.3,12.3c-.7-.4-1.3-.9-1.7-1.7s-.6-1.6-.6-2.5.2-1.8.6-2.5c.4-.7,1-1.3,1.7-1.7.7-.4,1.6-.6,2.5-.6s1.7.2,2.5.6,1.3.9,1.7,1.7c.4.7.6,1.6.6,2.5s-.2,1.8-.6,2.5-1,1.3-1.8,1.7-1.6.6-2.5.6-1.7-.2-2.5-.6ZM80.1,9.8c.4-.4.6-1,.6-1.7s-.2-1.3-.6-1.7c-.4-.4-.8-.6-1.4-.6s-1,.2-1.4.6c-.4.4-.6,1-.6,1.7s.2,1.3.5,1.7c.4.4.8.6,1.4.6s1-.2,1.4-.6h0Z"/>
          <path class="cls-1" d="M88.1,5.5c.4-.2.8-.3,1.4-.3s1.2.2,1.7.5.9.8,1.2,1.3.4,1.2.4,2-.2,1.4-.4,2c-.3.6-.7,1-1.2,1.4-.5.3-1.1.5-1.7.5s-1-.1-1.4-.3c-.4-.2-.7-.5-.9-.8v4.6h-2.3V5.2h2.3v1.1c.2-.3.5-.6.9-.8h0ZM90,7.6c-.3-.3-.7-.5-1.2-.5s-.8.2-1.2.5c-.3.3-.5.8-.5,1.4s.2,1,.5,1.4c.3.3.7.5,1.2.5s.8-.2,1.2-.5.5-.8.5-1.4-.2-1-.5-1.3h0Z"/>
          <path class="cls-1" d="M101,9.5h-5.2c0,.5.2.8.4,1.1.3.2.6.4,1,.4.6,0,1-.2,1.2-.7h2.4c-.1.5-.3.9-.7,1.3-.3.4-.7.7-1.2.9-.5.2-1,.3-1.7.3s-1.4-.2-1.9-.5-1-.8-1.3-1.3-.5-1.3-.5-2,.2-1.4.5-2c.3-.6.8-1,1.3-1.3.6-.3,1.2-.5,2-.5s1.4.2,1.9.5c.6.3,1,.7,1.3,1.3.3.6.5,1.2.5,2s0,.4,0,.7h0ZM98.7,8.3c0-.4-.1-.7-.4-.9-.3-.2-.6-.3-1-.3s-.7.1-1,.3-.4.5-.5.9h2.9,0Z"/>
          <path class="cls-1" d="M108.9,6c.5.6.8,1.3.8,2.3v4.4h-2.3v-4.1c0-.5-.1-.9-.4-1.2-.3-.3-.6-.4-1-.4s-.8.1-1,.4c-.3.3-.4.7-.4,1.2v4.1h-2.3v-7.5h2.3v1c.2-.3.5-.6.9-.8.4-.2.8-.3,1.3-.3.9,0,1.6.3,2.1.8h0Z"/>
          <path class="cls-1" d="M113.6,3.3v9.4h-2.3V3.3h2.3Z"/>
          <path class="cls-1" d="M123.7,12.7h-2.3l-3.8-5.8v5.8h-2.3V3.3h2.3l3.8,5.8V3.3h2.3v9.4Z"/>
        </g>
        <g>
          <path class="cls-1" d="M89.8,14.7v1.6h1.8v.5h-1.8v1.7h2v.5h-2.7v-4.9h2.7v.5h-2Z"/>
          <path class="cls-1" d="M92.8,16.1c.2-.3.4-.5.7-.7.3-.2.6-.2.9-.2s.6,0,.8.2c.3.1.5.3.6.6v-2.1h.7v5.2h-.7v-.7c-.1.2-.3.4-.6.6s-.5.2-.9.2-.7,0-.9-.3-.5-.4-.7-.7-.2-.7-.2-1,0-.8.2-1h0ZM95.7,16.4c-.1-.2-.3-.4-.5-.5-.2-.1-.4-.2-.7-.2s-.5,0-.7.2-.4.3-.5.5c-.1.2-.2.5-.2.8s0,.6.2.8c.1.2.3.4.5.5.2.1.4.2.7.2s.5,0,.7-.2c.2-.1.4-.3.5-.5s.2-.5.2-.8,0-.5-.2-.8h0Z"/>
          <path class="cls-1" d="M101.1,15.2v3.9h-.6v-.6c-.1.2-.3.4-.5.5s-.5.2-.7.2-.6,0-.8-.2c-.2-.1-.4-.3-.6-.6s-.2-.6-.2-.9v-2.3h.6v2.2c0,.4,0,.7.3.9.2.2.5.3.8.3s.6-.1.8-.3.3-.5.3-.9v-2.1h.6,0Z"/>
          <path class="cls-1" d="M102.2,16.1c.2-.3.4-.5.7-.7s.6-.2,1-.2.9.1,1.2.4c.3.2.5.6.6,1h-.7c0-.2-.2-.4-.4-.6-.2-.1-.4-.2-.7-.2s-.7.1-.9.4c-.2.2-.3.6-.3,1.1s.1.8.3,1.1c.2.3.5.4.9.4s.5,0,.7-.2c.2-.1.3-.3.4-.6h.7c0,.4-.3.7-.6,1-.3.2-.7.4-1.2.4s-.7,0-1-.2c-.3-.2-.5-.4-.7-.7-.2-.3-.2-.7-.2-1.1s0-.8.2-1h0Z"/>
          <path class="cls-1" d="M106.5,16.1c.2-.3.4-.5.7-.7.3-.2.6-.2.9-.2s.6,0,.9.2c.2.1.4.3.6.6v-.7h.7v3.9h-.7v-.7c-.1.2-.3.4-.6.6s-.6.2-.9.2-.7,0-.9-.3-.5-.4-.7-.7-.2-.7-.2-1,0-.8.2-1h0ZM109.3,16.4c-.1-.2-.3-.4-.5-.5-.2-.1-.4-.2-.7-.2s-.5,0-.7.2-.4.3-.5.5c-.1.2-.2.5-.2.8s0,.6.2.8c.1.2.3.4.5.5.2.1.4.2.7.2s.5,0,.7-.2c.2-.1.4-.3.5-.5s.2-.5.2-.8,0-.5-.2-.8h0Z"/>
          <path class="cls-1" d="M112,15.7v2.3c0,.2,0,.3.1.4s.2.1.4.1h.5v.5h-.6c-.4,0-.6,0-.8-.2s-.3-.4-.3-.8v-2.3h-.5v-.5h.5v-1h.6v1h1v.5h-1,0Z"/>
          <path class="cls-1" d="M113.8,14.4c0,0-.1-.2-.1-.3s0-.2.1-.3.2-.1.3-.1.2,0,.3.1.1.2.1.3,0,.2-.1.3c0,0-.2.1-.3.1s-.2,0-.3-.1ZM114.5,15.2v3.9h-.6v-3.9h.6Z"/>
          <path class="cls-1" d="M116.3,18.9c-.3-.2-.5-.4-.7-.7-.2-.3-.2-.7-.2-1.1s0-.8.3-1c.2-.3.4-.5.7-.7.3-.2.6-.2,1-.2s.7,0,1,.2.5.4.7.7c.2.3.3.6.3,1.1s0,.8-.3,1.1c-.2.3-.4.5-.7.7-.3.2-.6.2-1,.2s-.7,0-1-.2h0ZM117.9,18.4c.2-.1.4-.3.5-.5.1-.2.2-.5.2-.8s0-.6-.2-.8c-.1-.2-.3-.4-.5-.5s-.4-.2-.6-.2-.4,0-.7.2c-.2.1-.3.3-.5.5s-.2.5-.2.8,0,.6.2.8c.1.2.3.4.5.5s.4.2.6.2.4,0,.7-.2h0Z"/>
          <path class="cls-1" d="M123.2,15.6c.3.3.4.7.4,1.2v2.3h-.6v-2.2c0-.4,0-.7-.3-.9s-.5-.3-.8-.3-.6.1-.8.3c-.2.2-.3.5-.3.9v2.1h-.6v-3.9h.6v.6c.1-.2.3-.4.5-.5.2-.1.5-.2.7-.2.5,0,.9.1,1.2.4h0Z"/>
        </g>
      </g>
    </g>
  </g>
</svg>